<svg xmlns:mydata="http://www.w3.org/2000/svg" mydata:contrastcolor="C1A7E2" mydata:template="Contrast" mydata:presentation="2.5" mydata:layouttype="undefined" mydata:specialfontid="undefined" mydata:id1="934" mydata:id2="518" mydata:companyname="Bar" mydata:companytagline="xat.com/Bar" version="1.1" xmlns="http://www.w3.org/2000/svg" xmlns:xlink="http://www.w3.org/1999/xlink" viewBox="0 0 550 470"><defs style="animation-play-state: running;"><filter id="electric-filter" x="-50%" y="-50%" width="200%" height="200%" style="animation-play-state: running;">
    <feFlood flood-color="#ffffff" result="flood-white" style="animation-play-state: running;"></feFlood>
    <feFlood flood-color="#d10754" result="flood-accent" style="animation-play-state: running;"></feFlood>
    <feComposite operator="out" in="flood-accent" in2="SourceAlpha" result="comp" style="animation-play-state: running;"></feComposite>
    <feGaussianBlur in="comp" result="comp" stdDeviation="0.4" style="animation-play-state: running;"></feGaussianBlur>
    <feComposite operator="in" in="comp" in2="SourceAlpha" result="comp" style="animation-play-state: running;"></feComposite>
    <feComposite operator="in" in="flood-white" in2="SourceAlpha" result="comp2" style="animation-play-state: running;"></feComposite>
    <feGaussianBlur in="comp2" result="comp2" stdDeviation="0.4" style="animation-play-state: running;"></feGaussianBlur>
    <feBlend in="comp" in2="comp2" result="output" mode="screen" style="animation-play-state: running;"></feBlend>
</filter>
<filter id="electric-electric" x="-50%" y="-50%" width="200%" height="200%" style="animation-play-state: running;">
    <feTurbulence baseFrequency="0.08" type="fractalNoise" numOctaves="1" seed="1" result="noise" style="animation-play-state: running;"></feTurbulence>
    <feColorMatrix in="noise" result="noise" type="hueRotate" values="90" style="animation-play-state: running;">
        <animate attributeType="XML" attributeName="values" values="0;180;360" dur="3s" repeatCount="indefinite" style="animation-play-state: running;"></animate>
    </feColorMatrix>
    <feDisplacementMap in="SourceGraphic" xChannelSelector="R" in2="noise" scale="13" result="lines" style="animation-play-state: running;"></feDisplacementMap>
    <feGaussianBlur in="lines" result="output" stdDeviation="10" style="animation-play-state: running;"></feGaussianBlur>
    <feBlend in="lines" in2="output" result="output" mode="screen" style="animation-play-state: running;"></feBlend>
</filter></defs><g fill="#101820" fill-rule="nonzero" stroke="none" stroke-width="1" stroke-linecap="butt" stroke-linejoin="miter" stroke-miterlimit="10" stroke-dasharray="" stroke-dashoffset="0" font-family="none" font-weight="none" font-size="none" text-anchor="none" style="mix-blend-mode: normal; animation-play-state: running;"><g data-paper-data="{&quot;isGlobalGroup&quot;:true,&quot;bounds&quot;:{&quot;x&quot;:103.255845674201,&quot;y&quot;:151.60466885130595,&quot;width&quot;:343.48830865159795,&quot;height&quot;:166.79066229738814}}" style="animation-play-state: running;"><g data-paper-data="{&quot;isSecondaryText&quot;:true}" style="animation-play-state: running;"><path d="M117.8076,297.24504l8.1717,-15.29463h-6.33635l-5.02538,9.35158l-5.02538,-9.35158h-6.33635l8.2154,15.29463l-8.2154,15.29463h6.33635l5.02538,-9.35158l5.02538,9.35158h6.33635z" data-paper-data="{&quot;glyphName&quot;:&quot;X&quot;,&quot;glyphIndex&quot;:0,&quot;firstGlyphOfWord&quot;:true,&quot;word&quot;:1}" style="animation-play-state: running;"></path><path d="M146.83826,281.95041c-0.69918,0 -1.35467,0.26219 -1.83536,0.69918l-2.66564,2.27235c-0.52439,0.43699 -0.83028,1.04877 -0.91768,1.74796l-3.71441,25.86978h5.63716l1.04877,-7.12293h9.17678l1.00508,7.12293h5.63716l-1.17987,-8.4776l-2.49084,-17.39218c-0.0874,-0.69918 -0.43699,-1.31097 -0.96138,-1.74796l-2.62194,-2.27235c-0.52439,-0.43699 -1.17987,-0.69918 -1.83536,-0.69918zM147.88704,287.54387h2.18495l1.04877,0.91768l1.61686,11.36173h-7.55992l1.61686,-11.36173z" data-paper-data="{&quot;glyphName&quot;:&quot;A&quot;,&quot;glyphIndex&quot;:1,&quot;word&quot;:1}" style="animation-play-state: running;"></path><path d="M190.07109,287.54387v-5.59347h-19.88302v5.59347h7.12293v24.9958h5.59347v-24.9958z" data-paper-data="{&quot;glyphName&quot;:&quot;T&quot;,&quot;glyphIndex&quot;:2,&quot;word&quot;:1}" style="animation-play-state: running;"></path><path d="M202.45246,305.98483c-1.79166,0 -3.27742,1.44207 -3.27742,3.27742c0,1.79166 1.48576,3.27742 3.27742,3.27742c1.79166,0 3.27742,-1.48576 3.27742,-3.27742c0,-1.83536 -1.48576,-3.27742 -3.27742,-3.27742z" data-paper-data="{&quot;glyphName&quot;:&quot;.&quot;,&quot;glyphIndex&quot;:3,&quot;word&quot;:1}" style="animation-play-state: running;"></path><path d="M224.66609,281.95041c-0.74288,0 -1.44207,0.30589 -1.96645,0.83028l-2.66564,2.66564c-0.52439,0.52439 -0.83028,1.22357 -0.83028,1.96645v19.66453c0,0.74288 0.30589,1.44207 0.83028,1.96645l2.66564,2.66564c0.52439,0.52439 1.22357,0.83028 1.96645,0.83028h9.83226c0.74288,0 1.44207,-0.30589 1.96645,-0.83028l2.70933,-2.66564c0.52439,-0.52439 0.78658,-1.22357 0.78658,-1.96645v-5.50607h-5.59347v4.3262l-1.00508,1.04877h-7.51622l-1.04877,-1.04877v-17.30478l1.04877,-1.04877h7.51622l1.00508,1.04877v4.3262h5.59347v-5.50607c0,-0.74288 -0.26219,-1.44207 -0.78658,-1.96645l-2.70933,-2.66564c-0.52439,-0.52439 -1.22357,-0.83028 -1.96645,-0.83028z" data-paper-data="{&quot;glyphName&quot;:&quot;C&quot;,&quot;glyphIndex&quot;:4,&quot;word&quot;:1}" style="animation-play-state: running;"></path><path d="M259.50872,281.95041c-0.74288,0 -1.44207,0.30589 -1.96645,0.83028l-3.27742,3.27742c-0.52439,0.52439 -0.83028,1.22357 -0.83028,1.96645v18.44096c0,0.74288 0.30589,1.44207 0.83028,1.96645l3.27742,3.27742c0.52439,0.52439 1.22357,0.83028 1.96645,0.83028h8.60869c0.74288,0 1.48576,-0.30589 2.01015,-0.83028l3.27742,-3.27742c0.52439,-0.52439 0.78658,-1.22357 0.78658,-1.96645v-18.44096c0,-0.74288 -0.26219,-1.44207 -0.78658,-1.96645l-3.27742,-3.27742c-0.52439,-0.52439 -1.26727,-0.83028 -2.01015,-0.83028zM260.68859,287.54387h6.29265l1.61686,1.61686v16.12491l-1.61686,1.66056h-6.29265l-1.66056,-1.66056v-16.12491z" data-paper-data="{&quot;glyphName&quot;:&quot;O&quot;,&quot;glyphIndex&quot;:5,&quot;word&quot;:1}" style="animation-play-state: running;"></path><path d="M312.70491,282.0815c-1.17987,-0.34959 -2.44714,0.0874 -3.14632,1.09247l-8.3902,12.5853l-8.3902,-12.5853c-0.65548,-1.00508 -1.96645,-1.44207 -3.14632,-1.09247c-1.17987,0.34959 -1.96645,1.44207 -1.96645,2.66564v27.79253h5.59347v-18.57205l5.59347,8.3902c0.52439,0.78658 1.39837,1.26727 2.31604,1.26727c0.96138,0 1.83536,-0.48069 2.31604,-1.26727l5.59347,-8.3902v18.57205h5.59347v-27.79253c0,-1.22357 -0.78658,-2.31604 -1.96645,-2.66564z" data-paper-data="{&quot;glyphName&quot;:&quot;M&quot;,&quot;glyphIndex&quot;:6,&quot;word&quot;:1}" style="animation-play-state: running;"></path><path d="M342.74065,277.18722l-5.50607,-1.09247l-8.2154,41.20811l5.46237,1.09247z" data-paper-data="{&quot;glyphName&quot;:&quot;/&quot;,&quot;glyphIndex&quot;:7,&quot;word&quot;:1}" style="animation-play-state: running;"></path><path d="M357.08848,281.95041v30.58926h15.29463c0.74288,0 1.44207,-0.30589 1.96645,-0.83028l2.70933,-2.66564c0.52439,-0.52439 0.78658,-1.22357 0.78658,-1.96645v-7.16663c0,-0.74288 -0.26219,-1.44207 -0.78658,-1.96645l-0.69918,-0.69918l0.69918,-0.69918c0.52439,-0.52439 0.78658,-1.22357 0.78658,-1.96645v-7.16663c0,-0.74288 -0.26219,-1.44207 -0.78658,-1.96645l-2.70933,-2.66564c-0.52439,-0.52439 -1.22357,-0.83028 -1.96645,-0.83028zM362.68194,287.54387h8.56499l1.00508,1.04877v4.80688l-1.00508,1.04877h-8.56499zM362.68194,300.04177h8.56499l1.00508,1.04877v4.80688l-1.00508,1.04877h-8.56499z" data-paper-data="{&quot;glyphName&quot;:&quot;B&quot;,&quot;glyphIndex&quot;:8,&quot;word&quot;:1}" style="animation-play-state: running;"></path><path d="M399.57842,281.95041c-0.69918,0 -1.35467,0.26219 -1.83536,0.69918l-2.66564,2.27235c-0.52439,0.43699 -0.83028,1.04877 -0.91768,1.74796l-3.71441,25.86978h5.63716l1.04877,-7.12293h9.17678l1.00508,7.12293h5.63716l-1.17987,-8.4776l-2.49084,-17.39218c-0.0874,-0.69918 -0.43699,-1.31097 -0.96138,-1.74796l-2.62194,-2.27235c-0.52439,-0.43699 -1.17987,-0.69918 -1.83536,-0.69918zM400.6272,287.54387h2.18495l1.04877,0.91768l1.61686,11.36173h-7.55992l1.61686,-11.36173z" data-paper-data="{&quot;glyphName&quot;:&quot;A&quot;,&quot;glyphIndex&quot;:9,&quot;word&quot;:1}" style="animation-play-state: running;"></path><path d="M425.98715,281.95041v30.58926h5.59347v-10.70624h5.46237l1.04877,0.78658l2.84043,9.91966h5.81196l-3.32112,-11.71132l2.53454,-2.49084c0.52439,-0.52439 0.78658,-1.22357 0.78658,-1.96645v-8.95828c0,-0.74288 -0.26219,-1.44207 -0.78658,-1.96645l-2.70933,-2.66564c-0.52439,-0.52439 -1.22357,-0.83028 -1.96645,-0.83028zM431.58062,287.54387h8.56499l1.00508,1.04877v6.59854l-1.00508,1.04877h-8.56499z" data-paper-data="{&quot;glyphName&quot;:&quot;R&quot;,&quot;glyphIndex&quot;:10,&quot;lastGlyphOfWord&quot;:true,&quot;word&quot;:1}" style="animation-play-state: running;"></path></g><g data-paper-data="{&quot;isPrimaryText&quot;:true}" style="animation-play-state: running;"><path d="M103.25585,205.41694c0,0.40158 0.13386,0.53545 0.53545,0.53545h91.02574c6.29148,0 8.29941,2.14178 8.29941,8.43327v4.1497c0,6.29148 -2.4095,7.76396 -8.29941,7.76396h-91.02574c-0.40158,0 -0.53545,0.13386 -0.53545,0.53545v19.14218c0,0.40158 0.13386,0.53545 0.53545,0.53545h91.96277c18.33901,0 28.91406,-9.10257 28.91406,-27.97703v-4.1497c0,-8.03168 -2.27564,-15.2602 -9.10257,-19.94535c4.68515,-4.1497 6.15762,-10.44119 6.15762,-16.46495c0,-17.53584 -8.96871,-26.37069 -27.04,-26.37069h-90.89188c-0.40158,0 -0.53545,0.13386 -0.53545,0.53545v18.20515c0,0.40158 0.13386,0.53545 0.53545,0.53545h89.82099c3.61426,0 5.08673,0.66931 5.75604,1.60634c0.93703,0.80317 1.47248,2.67723 1.47248,5.48832c0,3.07881 -0.40158,4.55129 -1.33861,5.48832c-0.93703,0.66931 -2.27564,1.47248 -5.8899,1.47248h-89.82099c-0.40158,0 -0.53545,0.13386 -0.53545,0.53545z" data-paper-data="{&quot;glyphName&quot;:&quot;b&quot;,&quot;glyphIndex&quot;:0,&quot;firstGlyphOfWord&quot;:true,&quot;word&quot;:1}" style="animation-play-state: running;"></path><path d="M234.03842,241.02407c0,1.7402 0.66931,3.07881 2.14178,4.1497c1.07089,0.40158 2.00792,0.66931 2.81109,0.66931h13.78772c0.53545,0 1.47248,-0.26772 2.81109,-0.66931c1.47248,-0.93703 2.27564,-2.00792 2.81109,-2.94495l7.36238,-11.24436l12.85069,-20.21307l21.41782,-33.06376c0.40158,-0.40158 0.66931,-0.40158 1.07089,0l34.40238,53.27683l4.55129,6.82693l2.81109,4.41743c0.40158,0.66931 1.20475,2.00792 2.81109,2.94495c0.66931,0.40158 1.60634,0.66931 2.67723,0.66931h13.78772c0.80317,0 1.7402,-0.26772 2.81109,-0.66931c1.47248,-1.07089 2.14178,-2.4095 2.14178,-4.1497c-0.13386,-0.93703 -0.40158,-1.87406 -0.93703,-2.67723l-53.54455,-82.59247c-1.20475,-2.14178 -3.07881,-3.61426 -5.62218,-3.61426h-12.85069c-1.07089,0 -2.00792,0.26772 -2.81109,0.80317c-1.47248,0.93703 -2.27564,2.00792 -2.67723,2.67723l-53.67841,82.59247c-0.40158,0.93703 -0.93703,1.7402 -0.93703,2.81109z" data-paper-data="{&quot;glyphName&quot;:&quot;a&quot;,&quot;glyphIndex&quot;:1,&quot;word&quot;:1}" style="animation-play-state: running;"></path><path d="M340.72594,152.14011c-3.07881,0 -5.22059,2.14178 -5.22059,5.22059v14.72475c0,0.40158 0.13386,0.53545 0.53545,0.53545h81.52158c3.34653,0 4.81901,0.53545 5.48832,1.47248c0.66931,0.66931 1.33861,2.00792 1.33861,5.22059v15.79564c0,5.35446 -1.47248,6.69307 -6.82693,6.69307h-48.45782c-0.53545,0 -0.80317,0.53545 -0.40158,0.93703c7.89782,7.49624 29.04792,27.97703 44.44198,42.9695c0,0.13386 0.13386,0.13386 0.40158,0.13386h30.38653c0.40158,0 0.80317,-0.53545 0.40158,-0.93703c-4.68515,-4.68515 -17.40198,-16.73267 -23.02416,-22.08713c-0.40158,-0.40158 -0.13386,-0.93703 0.40158,-0.93703c16.73267,-1.7402 25.03208,-7.89782 25.03208,-25.2998v-18.60673c0,-16.73267 -9.10257,-25.83525 -25.83525,-25.83525z" data-paper-data="{&quot;glyphName&quot;:&quot;r&quot;,&quot;glyphIndex&quot;:2,&quot;lastGlyphOfWord&quot;:true,&quot;word&quot;:1}" style="animation-play-state: running;"></path></g></g></g><g fill-rule="nonzero" font-family="none" font-weight="none" font-size="none" text-anchor="none" style="mix-blend-mode: normal; animation-play-state: running;" filter="url(#electric-electric)" fill="none" stroke="#d10754" stroke-width="2.5"><g data-paper-data="{&quot;isGlobalGroup&quot;:true,&quot;bounds&quot;:{&quot;x&quot;:103.255845674201,&quot;y&quot;:151.60466885130595,&quot;width&quot;:343.48830865159795,&quot;height&quot;:166.79066229738814}}" style="animation-play-state: running;"><g data-paper-data="{&quot;isSecondaryText&quot;:true}" style="animation-play-state: running;"><path d="M117.8076,297.24504l8.1717,-15.29463h-6.33635l-5.02538,9.35158l-5.02538,-9.35158h-6.33635l8.2154,15.29463l-8.2154,15.29463h6.33635l5.02538,-9.35158l5.02538,9.35158h6.33635z" data-paper-data="{&quot;glyphName&quot;:&quot;X&quot;,&quot;glyphIndex&quot;:0,&quot;firstGlyphOfWord&quot;:true,&quot;word&quot;:1}" style="animation-play-state: running;"></path><path d="M146.83826,281.95041c-0.69918,0 -1.35467,0.26219 -1.83536,0.69918l-2.66564,2.27235c-0.52439,0.43699 -0.83028,1.04877 -0.91768,1.74796l-3.71441,25.86978h5.63716l1.04877,-7.12293h9.17678l1.00508,7.12293h5.63716l-1.17987,-8.4776l-2.49084,-17.39218c-0.0874,-0.69918 -0.43699,-1.31097 -0.96138,-1.74796l-2.62194,-2.27235c-0.52439,-0.43699 -1.17987,-0.69918 -1.83536,-0.69918zM147.88704,287.54387h2.18495l1.04877,0.91768l1.61686,11.36173h-7.55992l1.61686,-11.36173z" data-paper-data="{&quot;glyphName&quot;:&quot;A&quot;,&quot;glyphIndex&quot;:1,&quot;word&quot;:1}" style="animation-play-state: running;"></path><path d="M190.07109,287.54387v-5.59347h-19.88302v5.59347h7.12293v24.9958h5.59347v-24.9958z" data-paper-data="{&quot;glyphName&quot;:&quot;T&quot;,&quot;glyphIndex&quot;:2,&quot;word&quot;:1}" style="animation-play-state: running;"></path><path d="M202.45246,305.98483c-1.79166,0 -3.27742,1.44207 -3.27742,3.27742c0,1.79166 1.48576,3.27742 3.27742,3.27742c1.79166,0 3.27742,-1.48576 3.27742,-3.27742c0,-1.83536 -1.48576,-3.27742 -3.27742,-3.27742z" data-paper-data="{&quot;glyphName&quot;:&quot;.&quot;,&quot;glyphIndex&quot;:3,&quot;word&quot;:1}" style="animation-play-state: running;"></path><path d="M224.66609,281.95041c-0.74288,0 -1.44207,0.30589 -1.96645,0.83028l-2.66564,2.66564c-0.52439,0.52439 -0.83028,1.22357 -0.83028,1.96645v19.66453c0,0.74288 0.30589,1.44207 0.83028,1.96645l2.66564,2.66564c0.52439,0.52439 1.22357,0.83028 1.96645,0.83028h9.83226c0.74288,0 1.44207,-0.30589 1.96645,-0.83028l2.70933,-2.66564c0.52439,-0.52439 0.78658,-1.22357 0.78658,-1.96645v-5.50607h-5.59347v4.3262l-1.00508,1.04877h-7.51622l-1.04877,-1.04877v-17.30478l1.04877,-1.04877h7.51622l1.00508,1.04877v4.3262h5.59347v-5.50607c0,-0.74288 -0.26219,-1.44207 -0.78658,-1.96645l-2.70933,-2.66564c-0.52439,-0.52439 -1.22357,-0.83028 -1.96645,-0.83028z" data-paper-data="{&quot;glyphName&quot;:&quot;C&quot;,&quot;glyphIndex&quot;:4,&quot;word&quot;:1}" style="animation-play-state: running;"></path><path d="M259.50872,281.95041c-0.74288,0 -1.44207,0.30589 -1.96645,0.83028l-3.27742,3.27742c-0.52439,0.52439 -0.83028,1.22357 -0.83028,1.96645v18.44096c0,0.74288 0.30589,1.44207 0.83028,1.96645l3.27742,3.27742c0.52439,0.52439 1.22357,0.83028 1.96645,0.83028h8.60869c0.74288,0 1.48576,-0.30589 2.01015,-0.83028l3.27742,-3.27742c0.52439,-0.52439 0.78658,-1.22357 0.78658,-1.96645v-18.44096c0,-0.74288 -0.26219,-1.44207 -0.78658,-1.96645l-3.27742,-3.27742c-0.52439,-0.52439 -1.26727,-0.83028 -2.01015,-0.83028zM260.68859,287.54387h6.29265l1.61686,1.61686v16.12491l-1.61686,1.66056h-6.29265l-1.66056,-1.66056v-16.12491z" data-paper-data="{&quot;glyphName&quot;:&quot;O&quot;,&quot;glyphIndex&quot;:5,&quot;word&quot;:1}" style="animation-play-state: running;"></path><path d="M312.70491,282.0815c-1.17987,-0.34959 -2.44714,0.0874 -3.14632,1.09247l-8.3902,12.5853l-8.3902,-12.5853c-0.65548,-1.00508 -1.96645,-1.44207 -3.14632,-1.09247c-1.17987,0.34959 -1.96645,1.44207 -1.96645,2.66564v27.79253h5.59347v-18.57205l5.59347,8.3902c0.52439,0.78658 1.39837,1.26727 2.31604,1.26727c0.96138,0 1.83536,-0.48069 2.31604,-1.26727l5.59347,-8.3902v18.57205h5.59347v-27.79253c0,-1.22357 -0.78658,-2.31604 -1.96645,-2.66564z" data-paper-data="{&quot;glyphName&quot;:&quot;M&quot;,&quot;glyphIndex&quot;:6,&quot;word&quot;:1}" style="animation-play-state: running;"></path><path d="M342.74065,277.18722l-5.50607,-1.09247l-8.2154,41.20811l5.46237,1.09247z" data-paper-data="{&quot;glyphName&quot;:&quot;/&quot;,&quot;glyphIndex&quot;:7,&quot;word&quot;:1}" style="animation-play-state: running;"></path><path d="M357.08848,281.95041v30.58926h15.29463c0.74288,0 1.44207,-0.30589 1.96645,-0.83028l2.70933,-2.66564c0.52439,-0.52439 0.78658,-1.22357 0.78658,-1.96645v-7.16663c0,-0.74288 -0.26219,-1.44207 -0.78658,-1.96645l-0.69918,-0.69918l0.69918,-0.69918c0.52439,-0.52439 0.78658,-1.22357 0.78658,-1.96645v-7.16663c0,-0.74288 -0.26219,-1.44207 -0.78658,-1.96645l-2.70933,-2.66564c-0.52439,-0.52439 -1.22357,-0.83028 -1.96645,-0.83028zM362.68194,287.54387h8.56499l1.00508,1.04877v4.80688l-1.00508,1.04877h-8.56499zM362.68194,300.04177h8.56499l1.00508,1.04877v4.80688l-1.00508,1.04877h-8.56499z" data-paper-data="{&quot;glyphName&quot;:&quot;B&quot;,&quot;glyphIndex&quot;:8,&quot;word&quot;:1}" style="animation-play-state: running;"></path><path d="M399.57842,281.95041c-0.69918,0 -1.35467,0.26219 -1.83536,0.69918l-2.66564,2.27235c-0.52439,0.43699 -0.83028,1.04877 -0.91768,1.74796l-3.71441,25.86978h5.63716l1.04877,-7.12293h9.17678l1.00508,7.12293h5.63716l-1.17987,-8.4776l-2.49084,-17.39218c-0.0874,-0.69918 -0.43699,-1.31097 -0.96138,-1.74796l-2.62194,-2.27235c-0.52439,-0.43699 -1.17987,-0.69918 -1.83536,-0.69918zM400.6272,287.54387h2.18495l1.04877,0.91768l1.61686,11.36173h-7.55992l1.61686,-11.36173z" data-paper-data="{&quot;glyphName&quot;:&quot;A&quot;,&quot;glyphIndex&quot;:9,&quot;word&quot;:1}" style="animation-play-state: running;"></path><path d="M425.98715,281.95041v30.58926h5.59347v-10.70624h5.46237l1.04877,0.78658l2.84043,9.91966h5.81196l-3.32112,-11.71132l2.53454,-2.49084c0.52439,-0.52439 0.78658,-1.22357 0.78658,-1.96645v-8.95828c0,-0.74288 -0.26219,-1.44207 -0.78658,-1.96645l-2.70933,-2.66564c-0.52439,-0.52439 -1.22357,-0.83028 -1.96645,-0.83028zM431.58062,287.54387h8.56499l1.00508,1.04877v6.59854l-1.00508,1.04877h-8.56499z" data-paper-data="{&quot;glyphName&quot;:&quot;R&quot;,&quot;glyphIndex&quot;:10,&quot;lastGlyphOfWord&quot;:true,&quot;word&quot;:1}" style="animation-play-state: running;"></path></g><g data-paper-data="{&quot;isPrimaryText&quot;:true}" style="animation-play-state: running;"><path d="M103.25585,205.41694c0,0.40158 0.13386,0.53545 0.53545,0.53545h91.02574c6.29148,0 8.29941,2.14178 8.29941,8.43327v4.1497c0,6.29148 -2.4095,7.76396 -8.29941,7.76396h-91.02574c-0.40158,0 -0.53545,0.13386 -0.53545,0.53545v19.14218c0,0.40158 0.13386,0.53545 0.53545,0.53545h91.96277c18.33901,0 28.91406,-9.10257 28.91406,-27.97703v-4.1497c0,-8.03168 -2.27564,-15.2602 -9.10257,-19.94535c4.68515,-4.1497 6.15762,-10.44119 6.15762,-16.46495c0,-17.53584 -8.96871,-26.37069 -27.04,-26.37069h-90.89188c-0.40158,0 -0.53545,0.13386 -0.53545,0.53545v18.20515c0,0.40158 0.13386,0.53545 0.53545,0.53545h89.82099c3.61426,0 5.08673,0.66931 5.75604,1.60634c0.93703,0.80317 1.47248,2.67723 1.47248,5.48832c0,3.07881 -0.40158,4.55129 -1.33861,5.48832c-0.93703,0.66931 -2.27564,1.47248 -5.8899,1.47248h-89.82099c-0.40158,0 -0.53545,0.13386 -0.53545,0.53545z" data-paper-data="{&quot;glyphName&quot;:&quot;b&quot;,&quot;glyphIndex&quot;:0,&quot;firstGlyphOfWord&quot;:true,&quot;word&quot;:1}" style="animation-play-state: running;"></path><path d="M234.03842,241.02407c0,1.7402 0.66931,3.07881 2.14178,4.1497c1.07089,0.40158 2.00792,0.66931 2.81109,0.66931h13.78772c0.53545,0 1.47248,-0.26772 2.81109,-0.66931c1.47248,-0.93703 2.27564,-2.00792 2.81109,-2.94495l7.36238,-11.24436l12.85069,-20.21307l21.41782,-33.06376c0.40158,-0.40158 0.66931,-0.40158 1.07089,0l34.40238,53.27683l4.55129,6.82693l2.81109,4.41743c0.40158,0.66931 1.20475,2.00792 2.81109,2.94495c0.66931,0.40158 1.60634,0.66931 2.67723,0.66931h13.78772c0.80317,0 1.7402,-0.26772 2.81109,-0.66931c1.47248,-1.07089 2.14178,-2.4095 2.14178,-4.1497c-0.13386,-0.93703 -0.40158,-1.87406 -0.93703,-2.67723l-53.54455,-82.59247c-1.20475,-2.14178 -3.07881,-3.61426 -5.62218,-3.61426h-12.85069c-1.07089,0 -2.00792,0.26772 -2.81109,0.80317c-1.47248,0.93703 -2.27564,2.00792 -2.67723,2.67723l-53.67841,82.59247c-0.40158,0.93703 -0.93703,1.7402 -0.93703,2.81109z" data-paper-data="{&quot;glyphName&quot;:&quot;a&quot;,&quot;glyphIndex&quot;:1,&quot;word&quot;:1}" style="animation-play-state: running;"></path><path d="M340.72594,152.14011c-3.07881,0 -5.22059,2.14178 -5.22059,5.22059v14.72475c0,0.40158 0.13386,0.53545 0.53545,0.53545h81.52158c3.34653,0 4.81901,0.53545 5.48832,1.47248c0.66931,0.66931 1.33861,2.00792 1.33861,5.22059v15.79564c0,5.35446 -1.47248,6.69307 -6.82693,6.69307h-48.45782c-0.53545,0 -0.80317,0.53545 -0.40158,0.93703c7.89782,7.49624 29.04792,27.97703 44.44198,42.9695c0,0.13386 0.13386,0.13386 0.40158,0.13386h30.38653c0.40158,0 0.80317,-0.53545 0.40158,-0.93703c-4.68515,-4.68515 -17.40198,-16.73267 -23.02416,-22.08713c-0.40158,-0.40158 -0.13386,-0.93703 0.40158,-0.93703c16.73267,-1.7402 25.03208,-7.89782 25.03208,-25.2998v-18.60673c0,-16.73267 -9.10257,-25.83525 -25.83525,-25.83525z" data-paper-data="{&quot;glyphName&quot;:&quot;r&quot;,&quot;glyphIndex&quot;:2,&quot;lastGlyphOfWord&quot;:true,&quot;word&quot;:1}" style="animation-play-state: running;"></path></g></g></g><g fill-rule="nonzero" font-family="none" font-weight="none" font-size="none" text-anchor="none" style="mix-blend-mode: normal; animation-play-state: running;" filter="url(#electric-electric)" fill="none" stroke="#ffffff" opacity="0.5"><g data-paper-data="{&quot;isGlobalGroup&quot;:true,&quot;bounds&quot;:{&quot;x&quot;:103.255845674201,&quot;y&quot;:151.60466885130595,&quot;width&quot;:343.48830865159795,&quot;height&quot;:166.79066229738814}}" style="animation-play-state: running;"><g data-paper-data="{&quot;isSecondaryText&quot;:true}" style="animation-play-state: running;"><path d="M117.8076,297.24504l8.1717,-15.29463h-6.33635l-5.02538,9.35158l-5.02538,-9.35158h-6.33635l8.2154,15.29463l-8.2154,15.29463h6.33635l5.02538,-9.35158l5.02538,9.35158h6.33635z" data-paper-data="{&quot;glyphName&quot;:&quot;X&quot;,&quot;glyphIndex&quot;:0,&quot;firstGlyphOfWord&quot;:true,&quot;word&quot;:1}" style="animation-play-state: running;"></path><path d="M146.83826,281.95041c-0.69918,0 -1.35467,0.26219 -1.83536,0.69918l-2.66564,2.27235c-0.52439,0.43699 -0.83028,1.04877 -0.91768,1.74796l-3.71441,25.86978h5.63716l1.04877,-7.12293h9.17678l1.00508,7.12293h5.63716l-1.17987,-8.4776l-2.49084,-17.39218c-0.0874,-0.69918 -0.43699,-1.31097 -0.96138,-1.74796l-2.62194,-2.27235c-0.52439,-0.43699 -1.17987,-0.69918 -1.83536,-0.69918zM147.88704,287.54387h2.18495l1.04877,0.91768l1.61686,11.36173h-7.55992l1.61686,-11.36173z" data-paper-data="{&quot;glyphName&quot;:&quot;A&quot;,&quot;glyphIndex&quot;:1,&quot;word&quot;:1}" style="animation-play-state: running;"></path><path d="M190.07109,287.54387v-5.59347h-19.88302v5.59347h7.12293v24.9958h5.59347v-24.9958z" data-paper-data="{&quot;glyphName&quot;:&quot;T&quot;,&quot;glyphIndex&quot;:2,&quot;word&quot;:1}" style="animation-play-state: running;"></path><path d="M202.45246,305.98483c-1.79166,0 -3.27742,1.44207 -3.27742,3.27742c0,1.79166 1.48576,3.27742 3.27742,3.27742c1.79166,0 3.27742,-1.48576 3.27742,-3.27742c0,-1.83536 -1.48576,-3.27742 -3.27742,-3.27742z" data-paper-data="{&quot;glyphName&quot;:&quot;.&quot;,&quot;glyphIndex&quot;:3,&quot;word&quot;:1}" style="animation-play-state: running;"></path><path d="M224.66609,281.95041c-0.74288,0 -1.44207,0.30589 -1.96645,0.83028l-2.66564,2.66564c-0.52439,0.52439 -0.83028,1.22357 -0.83028,1.96645v19.66453c0,0.74288 0.30589,1.44207 0.83028,1.96645l2.66564,2.66564c0.52439,0.52439 1.22357,0.83028 1.96645,0.83028h9.83226c0.74288,0 1.44207,-0.30589 1.96645,-0.83028l2.70933,-2.66564c0.52439,-0.52439 0.78658,-1.22357 0.78658,-1.96645v-5.50607h-5.59347v4.3262l-1.00508,1.04877h-7.51622l-1.04877,-1.04877v-17.30478l1.04877,-1.04877h7.51622l1.00508,1.04877v4.3262h5.59347v-5.50607c0,-0.74288 -0.26219,-1.44207 -0.78658,-1.96645l-2.70933,-2.66564c-0.52439,-0.52439 -1.22357,-0.83028 -1.96645,-0.83028z" data-paper-data="{&quot;glyphName&quot;:&quot;C&quot;,&quot;glyphIndex&quot;:4,&quot;word&quot;:1}" style="animation-play-state: running;"></path><path d="M259.50872,281.95041c-0.74288,0 -1.44207,0.30589 -1.96645,0.83028l-3.27742,3.27742c-0.52439,0.52439 -0.83028,1.22357 -0.83028,1.96645v18.44096c0,0.74288 0.30589,1.44207 0.83028,1.96645l3.27742,3.27742c0.52439,0.52439 1.22357,0.83028 1.96645,0.83028h8.60869c0.74288,0 1.48576,-0.30589 2.01015,-0.83028l3.27742,-3.27742c0.52439,-0.52439 0.78658,-1.22357 0.78658,-1.96645v-18.44096c0,-0.74288 -0.26219,-1.44207 -0.78658,-1.96645l-3.27742,-3.27742c-0.52439,-0.52439 -1.26727,-0.83028 -2.01015,-0.83028zM260.68859,287.54387h6.29265l1.61686,1.61686v16.12491l-1.61686,1.66056h-6.29265l-1.66056,-1.66056v-16.12491z" data-paper-data="{&quot;glyphName&quot;:&quot;O&quot;,&quot;glyphIndex&quot;:5,&quot;word&quot;:1}" style="animation-play-state: running;"></path><path d="M312.70491,282.0815c-1.17987,-0.34959 -2.44714,0.0874 -3.14632,1.09247l-8.3902,12.5853l-8.3902,-12.5853c-0.65548,-1.00508 -1.96645,-1.44207 -3.14632,-1.09247c-1.17987,0.34959 -1.96645,1.44207 -1.96645,2.66564v27.79253h5.59347v-18.57205l5.59347,8.3902c0.52439,0.78658 1.39837,1.26727 2.31604,1.26727c0.96138,0 1.83536,-0.48069 2.31604,-1.26727l5.59347,-8.3902v18.57205h5.59347v-27.79253c0,-1.22357 -0.78658,-2.31604 -1.96645,-2.66564z" data-paper-data="{&quot;glyphName&quot;:&quot;M&quot;,&quot;glyphIndex&quot;:6,&quot;word&quot;:1}" style="animation-play-state: running;"></path><path d="M342.74065,277.18722l-5.50607,-1.09247l-8.2154,41.20811l5.46237,1.09247z" data-paper-data="{&quot;glyphName&quot;:&quot;/&quot;,&quot;glyphIndex&quot;:7,&quot;word&quot;:1}" style="animation-play-state: running;"></path><path d="M357.08848,281.95041v30.58926h15.29463c0.74288,0 1.44207,-0.30589 1.96645,-0.83028l2.70933,-2.66564c0.52439,-0.52439 0.78658,-1.22357 0.78658,-1.96645v-7.16663c0,-0.74288 -0.26219,-1.44207 -0.78658,-1.96645l-0.69918,-0.69918l0.69918,-0.69918c0.52439,-0.52439 0.78658,-1.22357 0.78658,-1.96645v-7.16663c0,-0.74288 -0.26219,-1.44207 -0.78658,-1.96645l-2.70933,-2.66564c-0.52439,-0.52439 -1.22357,-0.83028 -1.96645,-0.83028zM362.68194,287.54387h8.56499l1.00508,1.04877v4.80688l-1.00508,1.04877h-8.56499zM362.68194,300.04177h8.56499l1.00508,1.04877v4.80688l-1.00508,1.04877h-8.56499z" data-paper-data="{&quot;glyphName&quot;:&quot;B&quot;,&quot;glyphIndex&quot;:8,&quot;word&quot;:1}" style="animation-play-state: running;"></path><path d="M399.57842,281.95041c-0.69918,0 -1.35467,0.26219 -1.83536,0.69918l-2.66564,2.27235c-0.52439,0.43699 -0.83028,1.04877 -0.91768,1.74796l-3.71441,25.86978h5.63716l1.04877,-7.12293h9.17678l1.00508,7.12293h5.63716l-1.17987,-8.4776l-2.49084,-17.39218c-0.0874,-0.69918 -0.43699,-1.31097 -0.96138,-1.74796l-2.62194,-2.27235c-0.52439,-0.43699 -1.17987,-0.69918 -1.83536,-0.69918zM400.6272,287.54387h2.18495l1.04877,0.91768l1.61686,11.36173h-7.55992l1.61686,-11.36173z" data-paper-data="{&quot;glyphName&quot;:&quot;A&quot;,&quot;glyphIndex&quot;:9,&quot;word&quot;:1}" style="animation-play-state: running;"></path><path d="M425.98715,281.95041v30.58926h5.59347v-10.70624h5.46237l1.04877,0.78658l2.84043,9.91966h5.81196l-3.32112,-11.71132l2.53454,-2.49084c0.52439,-0.52439 0.78658,-1.22357 0.78658,-1.96645v-8.95828c0,-0.74288 -0.26219,-1.44207 -0.78658,-1.96645l-2.70933,-2.66564c-0.52439,-0.52439 -1.22357,-0.83028 -1.96645,-0.83028zM431.58062,287.54387h8.56499l1.00508,1.04877v6.59854l-1.00508,1.04877h-8.56499z" data-paper-data="{&quot;glyphName&quot;:&quot;R&quot;,&quot;glyphIndex&quot;:10,&quot;lastGlyphOfWord&quot;:true,&quot;word&quot;:1}" style="animation-play-state: running;"></path></g><g data-paper-data="{&quot;isPrimaryText&quot;:true}" style="animation-play-state: running;"><path d="M103.25585,205.41694c0,0.40158 0.13386,0.53545 0.53545,0.53545h91.02574c6.29148,0 8.29941,2.14178 8.29941,8.43327v4.1497c0,6.29148 -2.4095,7.76396 -8.29941,7.76396h-91.02574c-0.40158,0 -0.53545,0.13386 -0.53545,0.53545v19.14218c0,0.40158 0.13386,0.53545 0.53545,0.53545h91.96277c18.33901,0 28.91406,-9.10257 28.91406,-27.97703v-4.1497c0,-8.03168 -2.27564,-15.2602 -9.10257,-19.94535c4.68515,-4.1497 6.15762,-10.44119 6.15762,-16.46495c0,-17.53584 -8.96871,-26.37069 -27.04,-26.37069h-90.89188c-0.40158,0 -0.53545,0.13386 -0.53545,0.53545v18.20515c0,0.40158 0.13386,0.53545 0.53545,0.53545h89.82099c3.61426,0 5.08673,0.66931 5.75604,1.60634c0.93703,0.80317 1.47248,2.67723 1.47248,5.48832c0,3.07881 -0.40158,4.55129 -1.33861,5.48832c-0.93703,0.66931 -2.27564,1.47248 -5.8899,1.47248h-89.82099c-0.40158,0 -0.53545,0.13386 -0.53545,0.53545z" data-paper-data="{&quot;glyphName&quot;:&quot;b&quot;,&quot;glyphIndex&quot;:0,&quot;firstGlyphOfWord&quot;:true,&quot;word&quot;:1}" style="animation-play-state: running;"></path><path d="M234.03842,241.02407c0,1.7402 0.66931,3.07881 2.14178,4.1497c1.07089,0.40158 2.00792,0.66931 2.81109,0.66931h13.78772c0.53545,0 1.47248,-0.26772 2.81109,-0.66931c1.47248,-0.93703 2.27564,-2.00792 2.81109,-2.94495l7.36238,-11.24436l12.85069,-20.21307l21.41782,-33.06376c0.40158,-0.40158 0.66931,-0.40158 1.07089,0l34.40238,53.27683l4.55129,6.82693l2.81109,4.41743c0.40158,0.66931 1.20475,2.00792 2.81109,2.94495c0.66931,0.40158 1.60634,0.66931 2.67723,0.66931h13.78772c0.80317,0 1.7402,-0.26772 2.81109,-0.66931c1.47248,-1.07089 2.14178,-2.4095 2.14178,-4.1497c-0.13386,-0.93703 -0.40158,-1.87406 -0.93703,-2.67723l-53.54455,-82.59247c-1.20475,-2.14178 -3.07881,-3.61426 -5.62218,-3.61426h-12.85069c-1.07089,0 -2.00792,0.26772 -2.81109,0.80317c-1.47248,0.93703 -2.27564,2.00792 -2.67723,2.67723l-53.67841,82.59247c-0.40158,0.93703 -0.93703,1.7402 -0.93703,2.81109z" data-paper-data="{&quot;glyphName&quot;:&quot;a&quot;,&quot;glyphIndex&quot;:1,&quot;word&quot;:1}" style="animation-play-state: running;"></path><path d="M340.72594,152.14011c-3.07881,0 -5.22059,2.14178 -5.22059,5.22059v14.72475c0,0.40158 0.13386,0.53545 0.53545,0.53545h81.52158c3.34653,0 4.81901,0.53545 5.48832,1.47248c0.66931,0.66931 1.33861,2.00792 1.33861,5.22059v15.79564c0,5.35446 -1.47248,6.69307 -6.82693,6.69307h-48.45782c-0.53545,0 -0.80317,0.53545 -0.40158,0.93703c7.89782,7.49624 29.04792,27.97703 44.44198,42.9695c0,0.13386 0.13386,0.13386 0.40158,0.13386h30.38653c0.40158,0 0.80317,-0.53545 0.40158,-0.93703c-4.68515,-4.68515 -17.40198,-16.73267 -23.02416,-22.08713c-0.40158,-0.40158 -0.13386,-0.93703 0.40158,-0.93703c16.73267,-1.7402 25.03208,-7.89782 25.03208,-25.2998v-18.60673c0,-16.73267 -9.10257,-25.83525 -25.83525,-25.83525z" data-paper-data="{&quot;glyphName&quot;:&quot;r&quot;,&quot;glyphIndex&quot;:2,&quot;lastGlyphOfWord&quot;:true,&quot;word&quot;:1}" style="animation-play-state: running;"></path></g></g></g><g fill-rule="nonzero" font-family="none" font-weight="none" font-size="none" text-anchor="none" style="mix-blend-mode: normal; animation-play-state: running;" filter="url(#electric-filter)" fill="#ffffff" stroke="none"><g data-paper-data="{&quot;isGlobalGroup&quot;:true,&quot;bounds&quot;:{&quot;x&quot;:103.255845674201,&quot;y&quot;:151.60466885130595,&quot;width&quot;:343.48830865159795,&quot;height&quot;:166.79066229738814}}" style="animation-play-state: running;"><g data-paper-data="{&quot;isSecondaryText&quot;:true}" style="animation-play-state: running;"><path d="M117.8076,297.24504l8.1717,-15.29463h-6.33635l-5.02538,9.35158l-5.02538,-9.35158h-6.33635l8.2154,15.29463l-8.2154,15.29463h6.33635l5.02538,-9.35158l5.02538,9.35158h6.33635z" data-paper-data="{&quot;glyphName&quot;:&quot;X&quot;,&quot;glyphIndex&quot;:0,&quot;firstGlyphOfWord&quot;:true,&quot;word&quot;:1}" style="animation-play-state: running;"></path><path d="M146.83826,281.95041c-0.69918,0 -1.35467,0.26219 -1.83536,0.69918l-2.66564,2.27235c-0.52439,0.43699 -0.83028,1.04877 -0.91768,1.74796l-3.71441,25.86978h5.63716l1.04877,-7.12293h9.17678l1.00508,7.12293h5.63716l-1.17987,-8.4776l-2.49084,-17.39218c-0.0874,-0.69918 -0.43699,-1.31097 -0.96138,-1.74796l-2.62194,-2.27235c-0.52439,-0.43699 -1.17987,-0.69918 -1.83536,-0.69918zM147.88704,287.54387h2.18495l1.04877,0.91768l1.61686,11.36173h-7.55992l1.61686,-11.36173z" data-paper-data="{&quot;glyphName&quot;:&quot;A&quot;,&quot;glyphIndex&quot;:1,&quot;word&quot;:1}" style="animation-play-state: running;"></path><path d="M190.07109,287.54387v-5.59347h-19.88302v5.59347h7.12293v24.9958h5.59347v-24.9958z" data-paper-data="{&quot;glyphName&quot;:&quot;T&quot;,&quot;glyphIndex&quot;:2,&quot;word&quot;:1}" style="animation-play-state: running;"></path><path d="M202.45246,305.98483c-1.79166,0 -3.27742,1.44207 -3.27742,3.27742c0,1.79166 1.48576,3.27742 3.27742,3.27742c1.79166,0 3.27742,-1.48576 3.27742,-3.27742c0,-1.83536 -1.48576,-3.27742 -3.27742,-3.27742z" data-paper-data="{&quot;glyphName&quot;:&quot;.&quot;,&quot;glyphIndex&quot;:3,&quot;word&quot;:1}" style="animation-play-state: running;"></path><path d="M224.66609,281.95041c-0.74288,0 -1.44207,0.30589 -1.96645,0.83028l-2.66564,2.66564c-0.52439,0.52439 -0.83028,1.22357 -0.83028,1.96645v19.66453c0,0.74288 0.30589,1.44207 0.83028,1.96645l2.66564,2.66564c0.52439,0.52439 1.22357,0.83028 1.96645,0.83028h9.83226c0.74288,0 1.44207,-0.30589 1.96645,-0.83028l2.70933,-2.66564c0.52439,-0.52439 0.78658,-1.22357 0.78658,-1.96645v-5.50607h-5.59347v4.3262l-1.00508,1.04877h-7.51622l-1.04877,-1.04877v-17.30478l1.04877,-1.04877h7.51622l1.00508,1.04877v4.3262h5.59347v-5.50607c0,-0.74288 -0.26219,-1.44207 -0.78658,-1.96645l-2.70933,-2.66564c-0.52439,-0.52439 -1.22357,-0.83028 -1.96645,-0.83028z" data-paper-data="{&quot;glyphName&quot;:&quot;C&quot;,&quot;glyphIndex&quot;:4,&quot;word&quot;:1}" style="animation-play-state: running;"></path><path d="M259.50872,281.95041c-0.74288,0 -1.44207,0.30589 -1.96645,0.83028l-3.27742,3.27742c-0.52439,0.52439 -0.83028,1.22357 -0.83028,1.96645v18.44096c0,0.74288 0.30589,1.44207 0.83028,1.96645l3.27742,3.27742c0.52439,0.52439 1.22357,0.83028 1.96645,0.83028h8.60869c0.74288,0 1.48576,-0.30589 2.01015,-0.83028l3.27742,-3.27742c0.52439,-0.52439 0.78658,-1.22357 0.78658,-1.96645v-18.44096c0,-0.74288 -0.26219,-1.44207 -0.78658,-1.96645l-3.27742,-3.27742c-0.52439,-0.52439 -1.26727,-0.83028 -2.01015,-0.83028zM260.68859,287.54387h6.29265l1.61686,1.61686v16.12491l-1.61686,1.66056h-6.29265l-1.66056,-1.66056v-16.12491z" data-paper-data="{&quot;glyphName&quot;:&quot;O&quot;,&quot;glyphIndex&quot;:5,&quot;word&quot;:1}" style="animation-play-state: running;"></path><path d="M312.70491,282.0815c-1.17987,-0.34959 -2.44714,0.0874 -3.14632,1.09247l-8.3902,12.5853l-8.3902,-12.5853c-0.65548,-1.00508 -1.96645,-1.44207 -3.14632,-1.09247c-1.17987,0.34959 -1.96645,1.44207 -1.96645,2.66564v27.79253h5.59347v-18.57205l5.59347,8.3902c0.52439,0.78658 1.39837,1.26727 2.31604,1.26727c0.96138,0 1.83536,-0.48069 2.31604,-1.26727l5.59347,-8.3902v18.57205h5.59347v-27.79253c0,-1.22357 -0.78658,-2.31604 -1.96645,-2.66564z" data-paper-data="{&quot;glyphName&quot;:&quot;M&quot;,&quot;glyphIndex&quot;:6,&quot;word&quot;:1}" style="animation-play-state: running;"></path><path d="M342.74065,277.18722l-5.50607,-1.09247l-8.2154,41.20811l5.46237,1.09247z" data-paper-data="{&quot;glyphName&quot;:&quot;/&quot;,&quot;glyphIndex&quot;:7,&quot;word&quot;:1}" style="animation-play-state: running;"></path><path d="M357.08848,281.95041v30.58926h15.29463c0.74288,0 1.44207,-0.30589 1.96645,-0.83028l2.70933,-2.66564c0.52439,-0.52439 0.78658,-1.22357 0.78658,-1.96645v-7.16663c0,-0.74288 -0.26219,-1.44207 -0.78658,-1.96645l-0.69918,-0.69918l0.69918,-0.69918c0.52439,-0.52439 0.78658,-1.22357 0.78658,-1.96645v-7.16663c0,-0.74288 -0.26219,-1.44207 -0.78658,-1.96645l-2.70933,-2.66564c-0.52439,-0.52439 -1.22357,-0.83028 -1.96645,-0.83028zM362.68194,287.54387h8.56499l1.00508,1.04877v4.80688l-1.00508,1.04877h-8.56499zM362.68194,300.04177h8.56499l1.00508,1.04877v4.80688l-1.00508,1.04877h-8.56499z" data-paper-data="{&quot;glyphName&quot;:&quot;B&quot;,&quot;glyphIndex&quot;:8,&quot;word&quot;:1}" style="animation-play-state: running;"></path><path d="M399.57842,281.95041c-0.69918,0 -1.35467,0.26219 -1.83536,0.69918l-2.66564,2.27235c-0.52439,0.43699 -0.83028,1.04877 -0.91768,1.74796l-3.71441,25.86978h5.63716l1.04877,-7.12293h9.17678l1.00508,7.12293h5.63716l-1.17987,-8.4776l-2.49084,-17.39218c-0.0874,-0.69918 -0.43699,-1.31097 -0.96138,-1.74796l-2.62194,-2.27235c-0.52439,-0.43699 -1.17987,-0.69918 -1.83536,-0.69918zM400.6272,287.54387h2.18495l1.04877,0.91768l1.61686,11.36173h-7.55992l1.61686,-11.36173z" data-paper-data="{&quot;glyphName&quot;:&quot;A&quot;,&quot;glyphIndex&quot;:9,&quot;word&quot;:1}" style="animation-play-state: running;"></path><path d="M425.98715,281.95041v30.58926h5.59347v-10.70624h5.46237l1.04877,0.78658l2.84043,9.91966h5.81196l-3.32112,-11.71132l2.53454,-2.49084c0.52439,-0.52439 0.78658,-1.22357 0.78658,-1.96645v-8.95828c0,-0.74288 -0.26219,-1.44207 -0.78658,-1.96645l-2.70933,-2.66564c-0.52439,-0.52439 -1.22357,-0.83028 -1.96645,-0.83028zM431.58062,287.54387h8.56499l1.00508,1.04877v6.59854l-1.00508,1.04877h-8.56499z" data-paper-data="{&quot;glyphName&quot;:&quot;R&quot;,&quot;glyphIndex&quot;:10,&quot;lastGlyphOfWord&quot;:true,&quot;word&quot;:1}" style="animation-play-state: running;"></path></g><g data-paper-data="{&quot;isPrimaryText&quot;:true}" style="animation-play-state: running;"><path d="M103.25585,205.41694c0,0.40158 0.13386,0.53545 0.53545,0.53545h91.02574c6.29148,0 8.29941,2.14178 8.29941,8.43327v4.1497c0,6.29148 -2.4095,7.76396 -8.29941,7.76396h-91.02574c-0.40158,0 -0.53545,0.13386 -0.53545,0.53545v19.14218c0,0.40158 0.13386,0.53545 0.53545,0.53545h91.96277c18.33901,0 28.91406,-9.10257 28.91406,-27.97703v-4.1497c0,-8.03168 -2.27564,-15.2602 -9.10257,-19.94535c4.68515,-4.1497 6.15762,-10.44119 6.15762,-16.46495c0,-17.53584 -8.96871,-26.37069 -27.04,-26.37069h-90.89188c-0.40158,0 -0.53545,0.13386 -0.53545,0.53545v18.20515c0,0.40158 0.13386,0.53545 0.53545,0.53545h89.82099c3.61426,0 5.08673,0.66931 5.75604,1.60634c0.93703,0.80317 1.47248,2.67723 1.47248,5.48832c0,3.07881 -0.40158,4.55129 -1.33861,5.48832c-0.93703,0.66931 -2.27564,1.47248 -5.8899,1.47248h-89.82099c-0.40158,0 -0.53545,0.13386 -0.53545,0.53545z" data-paper-data="{&quot;glyphName&quot;:&quot;b&quot;,&quot;glyphIndex&quot;:0,&quot;firstGlyphOfWord&quot;:true,&quot;word&quot;:1}" style="animation-play-state: running;"></path><path d="M234.03842,241.02407c0,1.7402 0.66931,3.07881 2.14178,4.1497c1.07089,0.40158 2.00792,0.66931 2.81109,0.66931h13.78772c0.53545,0 1.47248,-0.26772 2.81109,-0.66931c1.47248,-0.93703 2.27564,-2.00792 2.81109,-2.94495l7.36238,-11.24436l12.85069,-20.21307l21.41782,-33.06376c0.40158,-0.40158 0.66931,-0.40158 1.07089,0l34.40238,53.27683l4.55129,6.82693l2.81109,4.41743c0.40158,0.66931 1.20475,2.00792 2.81109,2.94495c0.66931,0.40158 1.60634,0.66931 2.67723,0.66931h13.78772c0.80317,0 1.7402,-0.26772 2.81109,-0.66931c1.47248,-1.07089 2.14178,-2.4095 2.14178,-4.1497c-0.13386,-0.93703 -0.40158,-1.87406 -0.93703,-2.67723l-53.54455,-82.59247c-1.20475,-2.14178 -3.07881,-3.61426 -5.62218,-3.61426h-12.85069c-1.07089,0 -2.00792,0.26772 -2.81109,0.80317c-1.47248,0.93703 -2.27564,2.00792 -2.67723,2.67723l-53.67841,82.59247c-0.40158,0.93703 -0.93703,1.7402 -0.93703,2.81109z" data-paper-data="{&quot;glyphName&quot;:&quot;a&quot;,&quot;glyphIndex&quot;:1,&quot;word&quot;:1}" style="animation-play-state: running;"></path><path d="M340.72594,152.14011c-3.07881,0 -5.22059,2.14178 -5.22059,5.22059v14.72475c0,0.40158 0.13386,0.53545 0.53545,0.53545h81.52158c3.34653,0 4.81901,0.53545 5.48832,1.47248c0.66931,0.66931 1.33861,2.00792 1.33861,5.22059v15.79564c0,5.35446 -1.47248,6.69307 -6.82693,6.69307h-48.45782c-0.53545,0 -0.80317,0.53545 -0.40158,0.93703c7.89782,7.49624 29.04792,27.97703 44.44198,42.9695c0,0.13386 0.13386,0.13386 0.40158,0.13386h30.38653c0.40158,0 0.80317,-0.53545 0.40158,-0.93703c-4.68515,-4.68515 -17.40198,-16.73267 -23.02416,-22.08713c-0.40158,-0.40158 -0.13386,-0.93703 0.40158,-0.93703c16.73267,-1.7402 25.03208,-7.89782 25.03208,-25.2998v-18.60673c0,-16.73267 -9.10257,-25.83525 -25.83525,-25.83525z" data-paper-data="{&quot;glyphName&quot;:&quot;r&quot;,&quot;glyphIndex&quot;:2,&quot;lastGlyphOfWord&quot;:true,&quot;word&quot;:1}" style="animation-play-state: running;"></path></g></g></g></svg>