<svg xmlns:mydata="http://www.w3.org/2000/svg" mydata:contrastcolor="C1A7E2" mydata:template="Contrast" mydata:presentation="2.5" mydata:layouttype="undefined" mydata:specialfontid="undefined" mydata:id1="871" mydata:id2="518" mydata:companyname="Tudo Certo" mydata:companytagline="xat.com/TudoCerto" version="1.1" xmlns="http://www.w3.org/2000/svg" xmlns:xlink="http://www.w3.org/1999/xlink" viewBox="0 0 550 470"><defs style="animation-play-state: running;"><filter id="electric-filter" x="-50%" y="-50%" width="200%" height="200%" style="animation-play-state: running;">
                <feFlood flood-color="#ffffff" result="flood-white" style="animation-play-state: running;"></feFlood>
                <feFlood flood-color="#d10754" result="flood-accent" style="animation-play-state: running;"></feFlood>
                <feComposite operator="out" in="flood-accent" in2="SourceAlpha" result="comp" style="animation-play-state: running;"></feComposite>
                <feGaussianBlur in="comp" result="comp" stdDeviation="0.4" style="animation-play-state: running;"></feGaussianBlur>
                <feComposite operator="in" in="comp" in2="SourceAlpha" result="comp" style="animation-play-state: running;"></feComposite>
                <feComposite operator="in" in="flood-white" in2="SourceAlpha" result="comp2" style="animation-play-state: running;"></feComposite>
                <feGaussianBlur in="comp2" result="comp2" stdDeviation="0.4" style="animation-play-state: running;"></feGaussianBlur>
                <feBlend in="comp" in2="comp2" result="output" mode="screen" style="animation-play-state: running;"></feBlend>
            </filter>
            <filter id="electric-electric" x="-50%" y="-50%" width="200%" height="200%" style="animation-play-state: running;">
                <feTurbulence baseFrequency="0.08" type="fractalNoise" numOctaves="1" seed="1" result="noise" style="animation-play-state: running;"></feTurbulence>
                <feColorMatrix in="noise" result="noise" type="hueRotate" values="90" style="animation-play-state: running;">
                    <animate attributeType="XML" attributeName="values" values="0;180;360" dur="3s" repeatCount="indefinite" style="animation-play-state: running;"></animate>
                </feColorMatrix>
                <feDisplacementMap in="SourceGraphic" xChannelSelector="R" in2="noise" scale="13" result="lines" style="animation-play-state: running;"></feDisplacementMap>
                <feGaussianBlur in="lines" result="output" stdDeviation="10" style="animation-play-state: running;"></feGaussianBlur>
                <feBlend in="lines" in2="output" result="output" mode="screen" style="animation-play-state: running;"></feBlend>
            </filter></defs><g fill="#101820" fill-rule="nonzero" stroke="none" stroke-width="1" stroke-linecap="butt" stroke-linejoin="miter" stroke-miterlimit="10" stroke-dasharray="" stroke-dashoffset="0" font-family="none" font-weight="none" font-size="none" text-anchor="none" style="mix-blend-mode: normal; animation-play-state: running;"><g data-paper-data="{&quot;isGlobalGroup&quot;:true,&quot;bounds&quot;:{&quot;x&quot;:65,&quot;y&quot;:185.71892284401122,&quot;width&quot;:420,&quot;height&quot;:98.56215431197757}}" style="animation-play-state: running;"><g data-paper-data="{&quot;isSecondaryText&quot;:true}" style="animation-play-state: running;"><path d="M128.66196,272.45552l4.56896,-8.55154h-3.54278l-2.80979,5.22865l-2.80979,-5.22865h-3.54278l4.5934,8.55154l-4.5934,8.55154h3.54278l2.80979,-5.22865l2.80979,5.22865h3.54278z" data-paper-data="{&quot;glyphName&quot;:&quot;X&quot;,&quot;glyphIndex&quot;:0,&quot;firstGlyphOfWord&quot;:true,&quot;word&quot;:1}" style="animation-play-state: running;"></path><path d="M145.30596,263.90398c-0.39093,0 -0.75742,0.1466 -1.02618,0.39093l-1.49041,1.27051c-0.2932,0.24433 -0.46423,0.58639 -0.51309,0.97732l-2.0768,14.46432h3.15185l0.58639,-3.98257h5.13092l0.56196,3.98257h3.15185l-0.65969,-4.74l-1.39268,-9.72432c-0.04887,-0.39093 -0.24433,-0.73299 -0.53753,-0.97732l-1.46598,-1.27051c-0.2932,-0.24433 -0.65969,-0.39093 -1.02618,-0.39093zM145.89235,267.0314h1.22165l0.58639,0.51309l0.90402,6.35257h-4.2269l0.90402,-6.35257z" data-paper-data="{&quot;glyphName&quot;:&quot;A&quot;,&quot;glyphIndex&quot;:1,&quot;word&quot;:1}" style="animation-play-state: running;"></path><path d="M169.85263,267.0314v-3.12742h-11.117v3.12742h3.98257v13.97566h3.12742v-13.97566z" data-paper-data="{&quot;glyphName&quot;:&quot;T&quot;,&quot;glyphIndex&quot;:2,&quot;word&quot;:1}" style="animation-play-state: running;"></path><path d="M177.04337,277.34211c-1.00175,0 -1.83247,0.80629 -1.83247,1.83247c0,1.00175 0.83072,1.83247 1.83247,1.83247c1.00175,0 1.83247,-0.83072 1.83247,-1.83247c0,-1.02618 -0.83072,-1.83247 -1.83247,-1.83247z" data-paper-data="{&quot;glyphName&quot;:&quot;.&quot;,&quot;glyphIndex&quot;:3,&quot;word&quot;:1}" style="animation-play-state: running;"></path><path d="M189.78924,263.90398c-0.41536,0 -0.80629,0.17103 -1.09948,0.46423l-1.49041,1.49041c-0.2932,0.2932 -0.46423,0.68412 -0.46423,1.09948v10.99483c0,0.41536 0.17103,0.80629 0.46423,1.09948l1.49041,1.49041c0.2932,0.2932 0.68412,0.46423 1.09948,0.46423h5.49742c0.41536,0 0.80629,-0.17103 1.09948,-0.46423l1.51484,-1.49041c0.2932,-0.2932 0.43979,-0.68412 0.43979,-1.09948v-3.07855h-3.12742v2.41886l-0.56196,0.58639h-4.20247l-0.58639,-0.58639v-9.67545l0.58639,-0.58639h4.20247l0.56196,0.58639v2.41886h3.12742v-3.07855c0,-0.41536 -0.1466,-0.80629 -0.43979,-1.09948l-1.51484,-1.49041c-0.2932,-0.2932 -0.68412,-0.46423 -1.09948,-0.46423z" data-paper-data="{&quot;glyphName&quot;:&quot;C&quot;,&quot;glyphIndex&quot;:4,&quot;word&quot;:1}" style="animation-play-state: running;"></path><path d="M209.68152,263.90398c-0.41536,0 -0.80629,0.17103 -1.09948,0.46423l-1.83247,1.83247c-0.2932,0.2932 -0.46423,0.68412 -0.46423,1.09948v10.31071c0,0.41536 0.17103,0.80629 0.46423,1.09948l1.83247,1.83247c0.2932,0.2932 0.68412,0.46423 1.09948,0.46423h4.81329c0.41536,0 0.83072,-0.17103 1.12392,-0.46423l1.83247,-1.83247c0.2932,-0.2932 0.43979,-0.68412 0.43979,-1.09948v-10.31071c0,-0.41536 -0.1466,-0.80629 -0.43979,-1.09948l-1.83247,-1.83247c-0.2932,-0.2932 -0.70856,-0.46423 -1.12392,-0.46423zM210.34121,267.0314h3.51835l0.90402,0.90402v9.01576l-0.90402,0.92845h-3.51835l-0.92845,-0.92845v-9.01576z" data-paper-data="{&quot;glyphName&quot;:&quot;O&quot;,&quot;glyphIndex&quot;:5,&quot;word&quot;:1}" style="animation-play-state: running;"></path><path d="M239.87316,263.97728c-0.65969,-0.19546 -1.36825,0.04887 -1.75917,0.61082l-4.69113,7.03669l-4.69113,-7.03669c-0.36649,-0.56196 -1.09948,-0.80629 -1.75917,-0.61082c-0.65969,0.19546 -1.09948,0.80629 -1.09948,1.49041v15.53937h3.12742v-10.38401l3.12742,4.69113c0.2932,0.43979 0.78185,0.70856 1.29495,0.70856c0.53753,0 1.02618,-0.26876 1.29495,-0.70856l3.12742,-4.69113v10.38401h3.12742v-15.53937c0,-0.68412 -0.43979,-1.29495 -1.09948,-1.49041z" data-paper-data="{&quot;glyphName&quot;:&quot;M&quot;,&quot;glyphIndex&quot;:6,&quot;word&quot;:1}" style="animation-play-state: running;"></path><path d="M257.08358,261.24079l-3.07855,-0.61082l-4.5934,23.04029l3.05412,0.61082z" data-paper-data="{&quot;glyphName&quot;:&quot;/&quot;,&quot;glyphIndex&quot;:7,&quot;word&quot;:1}" style="animation-play-state: running;"></path><path d="M275.84807,267.0314v-3.12742h-11.117v3.12742h3.98257v13.97566h3.12742v-13.97566z" data-paper-data="{&quot;glyphName&quot;:&quot;T&quot;,&quot;glyphIndex&quot;:8,&quot;word&quot;:1}" style="animation-play-state: running;"></path><path d="M295.14346,263.90398h-3.12742v13.38927l-0.56196,0.58639h-4.20247l-0.58639,-0.58639v-13.38927h-3.12742v14.04896c0,0.41536 0.17103,0.80629 0.46423,1.09948l1.49041,1.49041c0.2932,0.2932 0.68412,0.46423 1.09948,0.46423h5.49742c0.41536,0 0.80629,-0.17103 1.09948,-0.46423l1.51484,-1.49041c0.2932,-0.2932 0.43979,-0.68412 0.43979,-1.09948z" data-paper-data="{&quot;glyphName&quot;:&quot;U&quot;,&quot;glyphIndex&quot;:9,&quot;word&quot;:1}" style="animation-play-state: running;"></path><path d="M303.58716,263.90398v17.10308h8.55154c0.41536,0 0.80629,-0.17103 1.09948,-0.46423l1.51484,-1.49041c0.2932,-0.2932 0.43979,-0.68412 0.43979,-1.09948v-10.99483c0,-0.41536 -0.1466,-0.80629 -0.43979,-1.09948l-1.51484,-1.49041c-0.2932,-0.2932 -0.68412,-0.46423 -1.09948,-0.46423zM306.71458,267.0314h4.78886l0.56196,0.58639v9.67545l-0.56196,0.58639h-4.78886z" data-paper-data="{&quot;glyphName&quot;:&quot;D&quot;,&quot;glyphIndex&quot;:10,&quot;word&quot;:1}" style="animation-play-state: running;"></path><path d="M326.53356,263.90398c-0.41536,0 -0.80629,0.17103 -1.09948,0.46423l-1.83247,1.83247c-0.2932,0.2932 -0.46423,0.68412 -0.46423,1.09948v10.31071c0,0.41536 0.17103,0.80629 0.46423,1.09948l1.83247,1.83247c0.2932,0.2932 0.68412,0.46423 1.09948,0.46423h4.81329c0.41536,0 0.83072,-0.17103 1.12392,-0.46423l1.83247,-1.83247c0.2932,-0.2932 0.43979,-0.68412 0.43979,-1.09948v-10.31071c0,-0.41536 -0.1466,-0.80629 -0.43979,-1.09948l-1.83247,-1.83247c-0.2932,-0.2932 -0.70856,-0.46423 -1.12392,-0.46423zM327.19325,267.0314h3.51835l0.90402,0.90402v9.01576l-0.90402,0.92845h-3.51835l-0.92845,-0.92845v-9.01576z" data-paper-data="{&quot;glyphName&quot;:&quot;O&quot;,&quot;glyphIndex&quot;:11,&quot;word&quot;:1}" style="animation-play-state: running;"></path><path d="M345.74171,263.90398c-0.41536,0 -0.80629,0.17103 -1.09948,0.46423l-1.49041,1.49041c-0.2932,0.2932 -0.46423,0.68412 -0.46423,1.09948v10.99483c0,0.41536 0.17103,0.80629 0.46423,1.09948l1.49041,1.49041c0.2932,0.2932 0.68412,0.46423 1.09948,0.46423h5.49742c0.41536,0 0.80629,-0.17103 1.09948,-0.46423l1.51484,-1.49041c0.2932,-0.2932 0.43979,-0.68412 0.43979,-1.09948v-3.07855h-3.12742v2.41886l-0.56196,0.58639h-4.20247l-0.58639,-0.58639v-9.67545l0.58639,-0.58639h4.20247l0.56196,0.58639v2.41886h3.12742v-3.07855c0,-0.41536 -0.1466,-0.80629 -0.43979,-1.09948l-1.51484,-1.49041c-0.2932,-0.2932 -0.68412,-0.46423 -1.09948,-0.46423z" data-paper-data="{&quot;glyphName&quot;:&quot;C&quot;,&quot;glyphIndex&quot;:12,&quot;word&quot;:1}" style="animation-play-state: running;"></path><path d="M372.33705,267.0314v-3.12742h-10.11525v17.10308h10.11525v-3.12742h-6.98783v-3.86041h6.98783v-3.12742h-6.98783v-3.86041z" data-paper-data="{&quot;glyphName&quot;:&quot;E&quot;,&quot;glyphIndex&quot;:13,&quot;word&quot;:1}" style="animation-play-state: running;"></path><path d="M380.76475,263.90398v17.10308h3.12742v-5.98608h3.05412l0.58639,0.43979l1.58814,5.54628h3.24958l-1.85691,-6.54803l1.41711,-1.39268c0.2932,-0.2932 0.43979,-0.68412 0.43979,-1.09948v-5.00876c0,-0.41536 -0.1466,-0.80629 -0.43979,-1.09948l-1.51484,-1.49041c-0.2932,-0.2932 -0.68412,-0.46423 -1.09948,-0.46423zM383.89217,267.0314h4.78886l0.56196,0.58639v3.68938l-0.56196,0.58639h-4.78886z" data-paper-data="{&quot;glyphName&quot;:&quot;R&quot;,&quot;glyphIndex&quot;:14,&quot;word&quot;:1}" style="animation-play-state: running;"></path><path d="M410.42841,267.0314v-3.12742h-11.117v3.12742h3.98257v13.97566h3.12742v-13.97566z" data-paper-data="{&quot;glyphName&quot;:&quot;T&quot;,&quot;glyphIndex&quot;:15,&quot;word&quot;:1}" style="animation-play-state: running;"></path><path d="M421.26474,263.90398c-0.41536,0 -0.80629,0.17103 -1.09948,0.46423l-1.83247,1.83247c-0.2932,0.2932 -0.46423,0.68412 -0.46423,1.09948v10.31071c0,0.41536 0.17103,0.80629 0.46423,1.09948l1.83247,1.83247c0.2932,0.2932 0.68412,0.46423 1.09948,0.46423h4.81329c0.41536,0 0.83072,-0.17103 1.12392,-0.46423l1.83247,-1.83247c0.2932,-0.2932 0.43979,-0.68412 0.43979,-1.09948v-10.31071c0,-0.41536 -0.1466,-0.80629 -0.43979,-1.09948l-1.83247,-1.83247c-0.2932,-0.2932 -0.70856,-0.46423 -1.12392,-0.46423zM421.92443,267.0314h3.51835l0.90402,0.90402v9.01576l-0.90402,0.92845h-3.51835l-0.92845,-0.92845v-9.01576z" data-paper-data="{&quot;glyphName&quot;:&quot;O&quot;,&quot;glyphIndex&quot;:16,&quot;lastGlyphOfWord&quot;:true,&quot;word&quot;:1}" style="animation-play-state: running;"></path></g><g data-paper-data="{&quot;isPrimaryText&quot;:true}" style="animation-play-state: running;"><path d="M108.24595,187.89209v0v0c-14.41532,0 -28.83063,0 -43.24595,0l2.10072,16.91445h10.4674v46.75923h18.10969v-46.75923h11.26423z" data-paper-data="{&quot;glyphName&quot;:&quot;T&quot;,&quot;glyphIndex&quot;:0,&quot;firstGlyphOfWord&quot;:true,&quot;word&quot;:1}" style="animation-play-state: running;"></path><path d="M142.69058,248.23358v0v0c4.10486,-3.06657 6.90583,-7.9079 8.4029,-14.52397c1.49707,-6.61607 2.23957,-13.69093 2.22749,-21.22456c-0.01207,-7.53363 -0.22335,-14.198 -0.63384,-19.9931c-0.07244,-1.52121 -0.14488,-2.9217 -0.21732,-4.20145l-17.02311,-1.01414c0.04829,0.70024 0.12073,1.67816 0.21732,2.93377c0.33805,4.03242 0.65195,9.35064 0.9417,15.95464c0.28976,6.604 0.15695,12.66471 -0.39841,18.18213c-0.55536,5.51742 -1.9317,8.63832 -4.12901,9.36271c-2.19731,0.26561 -3.73663,-1.41256 -4.61797,-5.03449c-0.88134,-3.62194 -1.34012,-8.10107 -1.37634,-13.43739c-0.03622,-5.33632 0.10866,-10.45533 0.43463,-15.35702c0.32597,-4.90169 0.60969,-8.49948 0.85116,-10.79338c0.02415,-0.24146 0.04829,-0.45878 0.07244,-0.65195l-19.08762,0.47085l1.88341,10.8296c0,0.14488 -0.01207,0.44067 -0.03622,0.88737c-0.02415,0.44671 -0.06037,0.88737 -0.10866,1.32201c-0.02415,0.3139 -0.03622,0.53122 -0.03622,0.65195c-0.79683,9.58606 -0.21732,19.0031 1.73853,28.25112c1.95585,9.24802 6.59193,15.65885 13.90824,19.23249c5.91583,2.41463 11.57813,1.7989 16.98689,-1.84719z" data-paper-data="{&quot;glyphName&quot;:&quot;U&quot;,&quot;glyphIndex&quot;:1,&quot;word&quot;:1}" style="animation-play-state: running;"></path><path d="M156.49017,251.38467v0v0c13.23215,0.6761 23.27096,-1.49707 30.11642,-6.51949c6.84546,-5.02242 10.91411,-11.33063 12.20593,-18.92463c1.29182,-7.594 0.21128,-14.91031 -3.24164,-21.94895c-3.45291,-7.03863 -8.87979,-12.24819 -16.28061,-15.62867c-7.40083,-3.38048 -16.3772,-3.3684 -26.92911,0.03622l4.12901,10.79338zM174.59986,208.21116c3.2356,1.20731 5.39669,3.33218 6.48327,6.37461c1.08658,3.04243 1.08658,6.09089 0,9.14539c-1.08658,3.0545 -3.24767,5.17334 -6.48327,6.3565z" data-paper-data="{&quot;glyphName&quot;:&quot;D&quot;,&quot;glyphIndex&quot;:2,&quot;word&quot;:1}" style="animation-play-state: running;"></path><path d="M227.69748,185.71892v0v0c-7.12315,0 -13.47361,3.20542 -19.0514,9.61625c-5.57779,6.41083 -8.36668,14.16782 -8.36668,23.27096c0,9.10314 2.51121,16.8722 7.53363,23.30717c5.02242,6.43498 11.09521,9.65247 18.21835,9.65247c7.12315,0 13.19593,-3.21749 18.21835,-9.65247c5.02242,-6.43498 7.53363,-14.20404 7.53363,-23.30717c0,-9.10314 -2.23957,-16.86012 -6.7187,-23.27096c-4.47913,-6.41083 -10.2682,-9.61625 -17.3672,-9.61625zM226.57468,206.76239c2.31804,0 4.20145,1.15902 5.65022,3.47706c1.44878,2.31804 2.17316,5.11901 2.17316,8.4029c0,3.25974 -0.81494,6.05467 -2.44481,8.38479c-1.62987,2.33011 -3.60383,3.49517 -5.92187,3.49517c-2.31804,0 -4.292,-1.16506 -5.92187,-3.49517c-1.62987,-2.33011 -2.44481,-5.12504 -2.44481,-8.38479c0,-3.28389 0.90548,-6.08486 2.71645,-8.4029c1.81097,-2.31804 3.87547,-3.47706 6.19352,-3.47706z" data-paper-data="{&quot;glyphName&quot;:&quot;O&quot;,&quot;glyphIndex&quot;:3,&quot;lastGlyphOfWord&quot;:true,&quot;word&quot;:1}" style="animation-play-state: running;"></path><path d="M296.87651,186.91416v0v0c-7.7268,0 -14.31873,3.15109 -19.77578,9.45326c-5.45705,6.30217 -8.18558,13.92032 -8.18558,22.85443c0,8.93412 2.72853,16.5583 8.18558,22.87254c5.45705,6.31425 12.04898,9.47137 19.77578,9.47137c5.77096,0 10.9624,-1.83512 15.57434,-5.50535l-2.17316,-16.87823c-0.77268,0.3139 -1.55743,0.60366 -2.35426,0.86927c-5.33632,1.64195 -10.10521,1.88944 -14.30666,0.7425c-4.20145,-1.14695 -6.88168,-3.42273 -8.0407,-6.82735c-0.91756,-3.50121 0.04226,-6.96016 2.87944,-10.37685c2.83719,-3.4167 6.89979,-6.03053 12.18782,-7.8415c2.19731,-0.70024 4.33425,-1.14695 6.41083,-1.34012l-2.06451,-16.11763c-2.6078,-0.91756 -5.31218,-1.37634 -8.11314,-1.37634z" data-paper-data="{&quot;glyphName&quot;:&quot;C&quot;,&quot;glyphIndex&quot;:4,&quot;firstGlyphOfWord&quot;:true,&quot;word&quot;:2}" style="animation-play-state: running;"></path><path d="M349.39462,187.09526v0l-40.67437,0.28976l3.69438,12.35081v51.82994c12.31459,0 24.64126,0 36.97999,0v-16.55226h-19.63091v-7.42497h17.38531v-16.55226h-17.38531v-7.38875h19.63091z" data-paper-data="{&quot;glyphName&quot;:&quot;E&quot;,&quot;glyphIndex&quot;:5,&quot;word&quot;:2}" style="animation-play-state: running;"></path><path d="M393.94446,210.63786v0v0c0,-6.13315 -1.22542,-10.84167 -3.67627,-14.12556c-2.45085,-3.28389 -5.63211,-5.62004 -9.54381,-7.00845c-3.91169,-1.38841 -8.13125,-2.19127 -12.65868,-2.40859c-4.52742,-0.21732 -8.94015,-0.24146 -13.23819,-0.07244c-2.10072,0.04829 -4.10486,0.07244 -6.01242,0.07244l3.80304,12.49569v51.97482h18.07347v-15.35702l10.39496,15.35702h18.07347l-14.92239,-22.05761c6.4712,-4.87754 9.7068,-11.16764 9.7068,-18.8703zM370.69162,202.16252v0v0c2.10072,0.16902 3.77889,1.0564 5.03449,2.66212c1.25561,1.60573 1.88341,3.54346 1.88341,5.81321c0,2.17316 -0.65195,4.05053 -1.95585,5.63211c-1.3039,1.58158 -2.95792,2.51725 -4.96206,2.807z" data-paper-data="{&quot;glyphName&quot;:&quot;R&quot;,&quot;glyphIndex&quot;:6,&quot;word&quot;:2}" style="animation-play-state: running;"></path><path d="M437.95102,187.89209v0v0c-14.41532,0 -28.83063,0 -43.24595,0l2.10072,16.91445h10.4674v46.75923h18.10969v-46.75923h11.26423z" data-paper-data="{&quot;glyphName&quot;:&quot;T&quot;,&quot;glyphIndex&quot;:7,&quot;word&quot;:2}" style="animation-play-state: running;"></path><path d="M460.91411,185.71892v0v0c-7.12315,0 -13.47361,3.20542 -19.0514,9.61625c-5.57779,6.41083 -8.36668,14.16782 -8.36668,23.27096c0,9.10314 2.51121,16.8722 7.53363,23.30717c5.02242,6.43498 11.09521,9.65247 18.21835,9.65247c7.12315,0 13.19593,-3.21749 18.21835,-9.65247c5.02242,-6.43498 7.53363,-14.20404 7.53363,-23.30717c0,-9.10314 -2.23957,-16.86012 -6.7187,-23.27096c-4.47913,-6.41083 -10.2682,-9.61625 -17.3672,-9.61625zM459.79131,206.76239c2.31804,0 4.20145,1.15902 5.65022,3.47706c1.44878,2.31804 2.17316,5.11901 2.17316,8.4029c0,3.25974 -0.81494,6.05467 -2.44481,8.38479c-1.62987,2.33011 -3.60383,3.49517 -5.92187,3.49517c-2.31804,0 -4.292,-1.16506 -5.92187,-3.49517c-1.62987,-2.33011 -2.44481,-5.12504 -2.44481,-8.38479c0,-3.28389 0.90548,-6.08486 2.71645,-8.4029c1.81097,-2.31804 3.87547,-3.47706 6.19352,-3.47706z" data-paper-data="{&quot;glyphName&quot;:&quot;O&quot;,&quot;glyphIndex&quot;:8,&quot;lastGlyphOfWord&quot;:true,&quot;word&quot;:2}" style="animation-play-state: running;"></path></g></g></g><g fill-rule="nonzero" font-family="none" font-weight="none" font-size="none" text-anchor="none" style="mix-blend-mode: normal; animation-play-state: running;" filter="url(#electric-electric)" fill="none" stroke="#d10754" stroke-width="2.5"><g data-paper-data="{&quot;isGlobalGroup&quot;:true,&quot;bounds&quot;:{&quot;x&quot;:65,&quot;y&quot;:185.71892284401122,&quot;width&quot;:420,&quot;height&quot;:98.56215431197757}}" style="animation-play-state: running;"><g data-paper-data="{&quot;isSecondaryText&quot;:true}" style="animation-play-state: running;"><path d="M128.66196,272.45552l4.56896,-8.55154h-3.54278l-2.80979,5.22865l-2.80979,-5.22865h-3.54278l4.5934,8.55154l-4.5934,8.55154h3.54278l2.80979,-5.22865l2.80979,5.22865h3.54278z" data-paper-data="{&quot;glyphName&quot;:&quot;X&quot;,&quot;glyphIndex&quot;:0,&quot;firstGlyphOfWord&quot;:true,&quot;word&quot;:1}" style="animation-play-state: running;"></path><path d="M145.30596,263.90398c-0.39093,0 -0.75742,0.1466 -1.02618,0.39093l-1.49041,1.27051c-0.2932,0.24433 -0.46423,0.58639 -0.51309,0.97732l-2.0768,14.46432h3.15185l0.58639,-3.98257h5.13092l0.56196,3.98257h3.15185l-0.65969,-4.74l-1.39268,-9.72432c-0.04887,-0.39093 -0.24433,-0.73299 -0.53753,-0.97732l-1.46598,-1.27051c-0.2932,-0.24433 -0.65969,-0.39093 -1.02618,-0.39093zM145.89235,267.0314h1.22165l0.58639,0.51309l0.90402,6.35257h-4.2269l0.90402,-6.35257z" data-paper-data="{&quot;glyphName&quot;:&quot;A&quot;,&quot;glyphIndex&quot;:1,&quot;word&quot;:1}" style="animation-play-state: running;"></path><path d="M169.85263,267.0314v-3.12742h-11.117v3.12742h3.98257v13.97566h3.12742v-13.97566z" data-paper-data="{&quot;glyphName&quot;:&quot;T&quot;,&quot;glyphIndex&quot;:2,&quot;word&quot;:1}" style="animation-play-state: running;"></path><path d="M177.04337,277.34211c-1.00175,0 -1.83247,0.80629 -1.83247,1.83247c0,1.00175 0.83072,1.83247 1.83247,1.83247c1.00175,0 1.83247,-0.83072 1.83247,-1.83247c0,-1.02618 -0.83072,-1.83247 -1.83247,-1.83247z" data-paper-data="{&quot;glyphName&quot;:&quot;.&quot;,&quot;glyphIndex&quot;:3,&quot;word&quot;:1}" style="animation-play-state: running;"></path><path d="M189.78924,263.90398c-0.41536,0 -0.80629,0.17103 -1.09948,0.46423l-1.49041,1.49041c-0.2932,0.2932 -0.46423,0.68412 -0.46423,1.09948v10.99483c0,0.41536 0.17103,0.80629 0.46423,1.09948l1.49041,1.49041c0.2932,0.2932 0.68412,0.46423 1.09948,0.46423h5.49742c0.41536,0 0.80629,-0.17103 1.09948,-0.46423l1.51484,-1.49041c0.2932,-0.2932 0.43979,-0.68412 0.43979,-1.09948v-3.07855h-3.12742v2.41886l-0.56196,0.58639h-4.20247l-0.58639,-0.58639v-9.67545l0.58639,-0.58639h4.20247l0.56196,0.58639v2.41886h3.12742v-3.07855c0,-0.41536 -0.1466,-0.80629 -0.43979,-1.09948l-1.51484,-1.49041c-0.2932,-0.2932 -0.68412,-0.46423 -1.09948,-0.46423z" data-paper-data="{&quot;glyphName&quot;:&quot;C&quot;,&quot;glyphIndex&quot;:4,&quot;word&quot;:1}" style="animation-play-state: running;"></path><path d="M209.68152,263.90398c-0.41536,0 -0.80629,0.17103 -1.09948,0.46423l-1.83247,1.83247c-0.2932,0.2932 -0.46423,0.68412 -0.46423,1.09948v10.31071c0,0.41536 0.17103,0.80629 0.46423,1.09948l1.83247,1.83247c0.2932,0.2932 0.68412,0.46423 1.09948,0.46423h4.81329c0.41536,0 0.83072,-0.17103 1.12392,-0.46423l1.83247,-1.83247c0.2932,-0.2932 0.43979,-0.68412 0.43979,-1.09948v-10.31071c0,-0.41536 -0.1466,-0.80629 -0.43979,-1.09948l-1.83247,-1.83247c-0.2932,-0.2932 -0.70856,-0.46423 -1.12392,-0.46423zM210.34121,267.0314h3.51835l0.90402,0.90402v9.01576l-0.90402,0.92845h-3.51835l-0.92845,-0.92845v-9.01576z" data-paper-data="{&quot;glyphName&quot;:&quot;O&quot;,&quot;glyphIndex&quot;:5,&quot;word&quot;:1}" style="animation-play-state: running;"></path><path d="M239.87316,263.97728c-0.65969,-0.19546 -1.36825,0.04887 -1.75917,0.61082l-4.69113,7.03669l-4.69113,-7.03669c-0.36649,-0.56196 -1.09948,-0.80629 -1.75917,-0.61082c-0.65969,0.19546 -1.09948,0.80629 -1.09948,1.49041v15.53937h3.12742v-10.38401l3.12742,4.69113c0.2932,0.43979 0.78185,0.70856 1.29495,0.70856c0.53753,0 1.02618,-0.26876 1.29495,-0.70856l3.12742,-4.69113v10.38401h3.12742v-15.53937c0,-0.68412 -0.43979,-1.29495 -1.09948,-1.49041z" data-paper-data="{&quot;glyphName&quot;:&quot;M&quot;,&quot;glyphIndex&quot;:6,&quot;word&quot;:1}" style="animation-play-state: running;"></path><path d="M257.08358,261.24079l-3.07855,-0.61082l-4.5934,23.04029l3.05412,0.61082z" data-paper-data="{&quot;glyphName&quot;:&quot;/&quot;,&quot;glyphIndex&quot;:7,&quot;word&quot;:1}" style="animation-play-state: running;"></path><path d="M275.84807,267.0314v-3.12742h-11.117v3.12742h3.98257v13.97566h3.12742v-13.97566z" data-paper-data="{&quot;glyphName&quot;:&quot;T&quot;,&quot;glyphIndex&quot;:8,&quot;word&quot;:1}" style="animation-play-state: running;"></path><path d="M295.14346,263.90398h-3.12742v13.38927l-0.56196,0.58639h-4.20247l-0.58639,-0.58639v-13.38927h-3.12742v14.04896c0,0.41536 0.17103,0.80629 0.46423,1.09948l1.49041,1.49041c0.2932,0.2932 0.68412,0.46423 1.09948,0.46423h5.49742c0.41536,0 0.80629,-0.17103 1.09948,-0.46423l1.51484,-1.49041c0.2932,-0.2932 0.43979,-0.68412 0.43979,-1.09948z" data-paper-data="{&quot;glyphName&quot;:&quot;U&quot;,&quot;glyphIndex&quot;:9,&quot;word&quot;:1}" style="animation-play-state: running;"></path><path d="M303.58716,263.90398v17.10308h8.55154c0.41536,0 0.80629,-0.17103 1.09948,-0.46423l1.51484,-1.49041c0.2932,-0.2932 0.43979,-0.68412 0.43979,-1.09948v-10.99483c0,-0.41536 -0.1466,-0.80629 -0.43979,-1.09948l-1.51484,-1.49041c-0.2932,-0.2932 -0.68412,-0.46423 -1.09948,-0.46423zM306.71458,267.0314h4.78886l0.56196,0.58639v9.67545l-0.56196,0.58639h-4.78886z" data-paper-data="{&quot;glyphName&quot;:&quot;D&quot;,&quot;glyphIndex&quot;:10,&quot;word&quot;:1}" style="animation-play-state: running;"></path><path d="M326.53356,263.90398c-0.41536,0 -0.80629,0.17103 -1.09948,0.46423l-1.83247,1.83247c-0.2932,0.2932 -0.46423,0.68412 -0.46423,1.09948v10.31071c0,0.41536 0.17103,0.80629 0.46423,1.09948l1.83247,1.83247c0.2932,0.2932 0.68412,0.46423 1.09948,0.46423h4.81329c0.41536,0 0.83072,-0.17103 1.12392,-0.46423l1.83247,-1.83247c0.2932,-0.2932 0.43979,-0.68412 0.43979,-1.09948v-10.31071c0,-0.41536 -0.1466,-0.80629 -0.43979,-1.09948l-1.83247,-1.83247c-0.2932,-0.2932 -0.70856,-0.46423 -1.12392,-0.46423zM327.19325,267.0314h3.51835l0.90402,0.90402v9.01576l-0.90402,0.92845h-3.51835l-0.92845,-0.92845v-9.01576z" data-paper-data="{&quot;glyphName&quot;:&quot;O&quot;,&quot;glyphIndex&quot;:11,&quot;word&quot;:1}" style="animation-play-state: running;"></path><path d="M345.74171,263.90398c-0.41536,0 -0.80629,0.17103 -1.09948,0.46423l-1.49041,1.49041c-0.2932,0.2932 -0.46423,0.68412 -0.46423,1.09948v10.99483c0,0.41536 0.17103,0.80629 0.46423,1.09948l1.49041,1.49041c0.2932,0.2932 0.68412,0.46423 1.09948,0.46423h5.49742c0.41536,0 0.80629,-0.17103 1.09948,-0.46423l1.51484,-1.49041c0.2932,-0.2932 0.43979,-0.68412 0.43979,-1.09948v-3.07855h-3.12742v2.41886l-0.56196,0.58639h-4.20247l-0.58639,-0.58639v-9.67545l0.58639,-0.58639h4.20247l0.56196,0.58639v2.41886h3.12742v-3.07855c0,-0.41536 -0.1466,-0.80629 -0.43979,-1.09948l-1.51484,-1.49041c-0.2932,-0.2932 -0.68412,-0.46423 -1.09948,-0.46423z" data-paper-data="{&quot;glyphName&quot;:&quot;C&quot;,&quot;glyphIndex&quot;:12,&quot;word&quot;:1}" style="animation-play-state: running;"></path><path d="M372.33705,267.0314v-3.12742h-10.11525v17.10308h10.11525v-3.12742h-6.98783v-3.86041h6.98783v-3.12742h-6.98783v-3.86041z" data-paper-data="{&quot;glyphName&quot;:&quot;E&quot;,&quot;glyphIndex&quot;:13,&quot;word&quot;:1}" style="animation-play-state: running;"></path><path d="M380.76475,263.90398v17.10308h3.12742v-5.98608h3.05412l0.58639,0.43979l1.58814,5.54628h3.24958l-1.85691,-6.54803l1.41711,-1.39268c0.2932,-0.2932 0.43979,-0.68412 0.43979,-1.09948v-5.00876c0,-0.41536 -0.1466,-0.80629 -0.43979,-1.09948l-1.51484,-1.49041c-0.2932,-0.2932 -0.68412,-0.46423 -1.09948,-0.46423zM383.89217,267.0314h4.78886l0.56196,0.58639v3.68938l-0.56196,0.58639h-4.78886z" data-paper-data="{&quot;glyphName&quot;:&quot;R&quot;,&quot;glyphIndex&quot;:14,&quot;word&quot;:1}" style="animation-play-state: running;"></path><path d="M410.42841,267.0314v-3.12742h-11.117v3.12742h3.98257v13.97566h3.12742v-13.97566z" data-paper-data="{&quot;glyphName&quot;:&quot;T&quot;,&quot;glyphIndex&quot;:15,&quot;word&quot;:1}" style="animation-play-state: running;"></path><path d="M421.26474,263.90398c-0.41536,0 -0.80629,0.17103 -1.09948,0.46423l-1.83247,1.83247c-0.2932,0.2932 -0.46423,0.68412 -0.46423,1.09948v10.31071c0,0.41536 0.17103,0.80629 0.46423,1.09948l1.83247,1.83247c0.2932,0.2932 0.68412,0.46423 1.09948,0.46423h4.81329c0.41536,0 0.83072,-0.17103 1.12392,-0.46423l1.83247,-1.83247c0.2932,-0.2932 0.43979,-0.68412 0.43979,-1.09948v-10.31071c0,-0.41536 -0.1466,-0.80629 -0.43979,-1.09948l-1.83247,-1.83247c-0.2932,-0.2932 -0.70856,-0.46423 -1.12392,-0.46423zM421.92443,267.0314h3.51835l0.90402,0.90402v9.01576l-0.90402,0.92845h-3.51835l-0.92845,-0.92845v-9.01576z" data-paper-data="{&quot;glyphName&quot;:&quot;O&quot;,&quot;glyphIndex&quot;:16,&quot;lastGlyphOfWord&quot;:true,&quot;word&quot;:1}" style="animation-play-state: running;"></path></g><g data-paper-data="{&quot;isPrimaryText&quot;:true}" style="animation-play-state: running;"><path d="M108.24595,187.89209v0v0c-14.41532,0 -28.83063,0 -43.24595,0l2.10072,16.91445h10.4674v46.75923h18.10969v-46.75923h11.26423z" data-paper-data="{&quot;glyphName&quot;:&quot;T&quot;,&quot;glyphIndex&quot;:0,&quot;firstGlyphOfWord&quot;:true,&quot;word&quot;:1}" style="animation-play-state: running;"></path><path d="M142.69058,248.23358v0v0c4.10486,-3.06657 6.90583,-7.9079 8.4029,-14.52397c1.49707,-6.61607 2.23957,-13.69093 2.22749,-21.22456c-0.01207,-7.53363 -0.22335,-14.198 -0.63384,-19.9931c-0.07244,-1.52121 -0.14488,-2.9217 -0.21732,-4.20145l-17.02311,-1.01414c0.04829,0.70024 0.12073,1.67816 0.21732,2.93377c0.33805,4.03242 0.65195,9.35064 0.9417,15.95464c0.28976,6.604 0.15695,12.66471 -0.39841,18.18213c-0.55536,5.51742 -1.9317,8.63832 -4.12901,9.36271c-2.19731,0.26561 -3.73663,-1.41256 -4.61797,-5.03449c-0.88134,-3.62194 -1.34012,-8.10107 -1.37634,-13.43739c-0.03622,-5.33632 0.10866,-10.45533 0.43463,-15.35702c0.32597,-4.90169 0.60969,-8.49948 0.85116,-10.79338c0.02415,-0.24146 0.04829,-0.45878 0.07244,-0.65195l-19.08762,0.47085l1.88341,10.8296c0,0.14488 -0.01207,0.44067 -0.03622,0.88737c-0.02415,0.44671 -0.06037,0.88737 -0.10866,1.32201c-0.02415,0.3139 -0.03622,0.53122 -0.03622,0.65195c-0.79683,9.58606 -0.21732,19.0031 1.73853,28.25112c1.95585,9.24802 6.59193,15.65885 13.90824,19.23249c5.91583,2.41463 11.57813,1.7989 16.98689,-1.84719z" data-paper-data="{&quot;glyphName&quot;:&quot;U&quot;,&quot;glyphIndex&quot;:1,&quot;word&quot;:1}" style="animation-play-state: running;"></path><path d="M156.49017,251.38467v0v0c13.23215,0.6761 23.27096,-1.49707 30.11642,-6.51949c6.84546,-5.02242 10.91411,-11.33063 12.20593,-18.92463c1.29182,-7.594 0.21128,-14.91031 -3.24164,-21.94895c-3.45291,-7.03863 -8.87979,-12.24819 -16.28061,-15.62867c-7.40083,-3.38048 -16.3772,-3.3684 -26.92911,0.03622l4.12901,10.79338zM174.59986,208.21116c3.2356,1.20731 5.39669,3.33218 6.48327,6.37461c1.08658,3.04243 1.08658,6.09089 0,9.14539c-1.08658,3.0545 -3.24767,5.17334 -6.48327,6.3565z" data-paper-data="{&quot;glyphName&quot;:&quot;D&quot;,&quot;glyphIndex&quot;:2,&quot;word&quot;:1}" style="animation-play-state: running;"></path><path d="M227.69748,185.71892v0v0c-7.12315,0 -13.47361,3.20542 -19.0514,9.61625c-5.57779,6.41083 -8.36668,14.16782 -8.36668,23.27096c0,9.10314 2.51121,16.8722 7.53363,23.30717c5.02242,6.43498 11.09521,9.65247 18.21835,9.65247c7.12315,0 13.19593,-3.21749 18.21835,-9.65247c5.02242,-6.43498 7.53363,-14.20404 7.53363,-23.30717c0,-9.10314 -2.23957,-16.86012 -6.7187,-23.27096c-4.47913,-6.41083 -10.2682,-9.61625 -17.3672,-9.61625zM226.57468,206.76239c2.31804,0 4.20145,1.15902 5.65022,3.47706c1.44878,2.31804 2.17316,5.11901 2.17316,8.4029c0,3.25974 -0.81494,6.05467 -2.44481,8.38479c-1.62987,2.33011 -3.60383,3.49517 -5.92187,3.49517c-2.31804,0 -4.292,-1.16506 -5.92187,-3.49517c-1.62987,-2.33011 -2.44481,-5.12504 -2.44481,-8.38479c0,-3.28389 0.90548,-6.08486 2.71645,-8.4029c1.81097,-2.31804 3.87547,-3.47706 6.19352,-3.47706z" data-paper-data="{&quot;glyphName&quot;:&quot;O&quot;,&quot;glyphIndex&quot;:3,&quot;lastGlyphOfWord&quot;:true,&quot;word&quot;:1}" style="animation-play-state: running;"></path><path d="M296.87651,186.91416v0v0c-7.7268,0 -14.31873,3.15109 -19.77578,9.45326c-5.45705,6.30217 -8.18558,13.92032 -8.18558,22.85443c0,8.93412 2.72853,16.5583 8.18558,22.87254c5.45705,6.31425 12.04898,9.47137 19.77578,9.47137c5.77096,0 10.9624,-1.83512 15.57434,-5.50535l-2.17316,-16.87823c-0.77268,0.3139 -1.55743,0.60366 -2.35426,0.86927c-5.33632,1.64195 -10.10521,1.88944 -14.30666,0.7425c-4.20145,-1.14695 -6.88168,-3.42273 -8.0407,-6.82735c-0.91756,-3.50121 0.04226,-6.96016 2.87944,-10.37685c2.83719,-3.4167 6.89979,-6.03053 12.18782,-7.8415c2.19731,-0.70024 4.33425,-1.14695 6.41083,-1.34012l-2.06451,-16.11763c-2.6078,-0.91756 -5.31218,-1.37634 -8.11314,-1.37634z" data-paper-data="{&quot;glyphName&quot;:&quot;C&quot;,&quot;glyphIndex&quot;:4,&quot;firstGlyphOfWord&quot;:true,&quot;word&quot;:2}" style="animation-play-state: running;"></path><path d="M349.39462,187.09526v0l-40.67437,0.28976l3.69438,12.35081v51.82994c12.31459,0 24.64126,0 36.97999,0v-16.55226h-19.63091v-7.42497h17.38531v-16.55226h-17.38531v-7.38875h19.63091z" data-paper-data="{&quot;glyphName&quot;:&quot;E&quot;,&quot;glyphIndex&quot;:5,&quot;word&quot;:2}" style="animation-play-state: running;"></path><path d="M393.94446,210.63786v0v0c0,-6.13315 -1.22542,-10.84167 -3.67627,-14.12556c-2.45085,-3.28389 -5.63211,-5.62004 -9.54381,-7.00845c-3.91169,-1.38841 -8.13125,-2.19127 -12.65868,-2.40859c-4.52742,-0.21732 -8.94015,-0.24146 -13.23819,-0.07244c-2.10072,0.04829 -4.10486,0.07244 -6.01242,0.07244l3.80304,12.49569v51.97482h18.07347v-15.35702l10.39496,15.35702h18.07347l-14.92239,-22.05761c6.4712,-4.87754 9.7068,-11.16764 9.7068,-18.8703zM370.69162,202.16252v0v0c2.10072,0.16902 3.77889,1.0564 5.03449,2.66212c1.25561,1.60573 1.88341,3.54346 1.88341,5.81321c0,2.17316 -0.65195,4.05053 -1.95585,5.63211c-1.3039,1.58158 -2.95792,2.51725 -4.96206,2.807z" data-paper-data="{&quot;glyphName&quot;:&quot;R&quot;,&quot;glyphIndex&quot;:6,&quot;word&quot;:2}" style="animation-play-state: running;"></path><path d="M437.95102,187.89209v0v0c-14.41532,0 -28.83063,0 -43.24595,0l2.10072,16.91445h10.4674v46.75923h18.10969v-46.75923h11.26423z" data-paper-data="{&quot;glyphName&quot;:&quot;T&quot;,&quot;glyphIndex&quot;:7,&quot;word&quot;:2}" style="animation-play-state: running;"></path><path d="M460.91411,185.71892v0v0c-7.12315,0 -13.47361,3.20542 -19.0514,9.61625c-5.57779,6.41083 -8.36668,14.16782 -8.36668,23.27096c0,9.10314 2.51121,16.8722 7.53363,23.30717c5.02242,6.43498 11.09521,9.65247 18.21835,9.65247c7.12315,0 13.19593,-3.21749 18.21835,-9.65247c5.02242,-6.43498 7.53363,-14.20404 7.53363,-23.30717c0,-9.10314 -2.23957,-16.86012 -6.7187,-23.27096c-4.47913,-6.41083 -10.2682,-9.61625 -17.3672,-9.61625zM459.79131,206.76239c2.31804,0 4.20145,1.15902 5.65022,3.47706c1.44878,2.31804 2.17316,5.11901 2.17316,8.4029c0,3.25974 -0.81494,6.05467 -2.44481,8.38479c-1.62987,2.33011 -3.60383,3.49517 -5.92187,3.49517c-2.31804,0 -4.292,-1.16506 -5.92187,-3.49517c-1.62987,-2.33011 -2.44481,-5.12504 -2.44481,-8.38479c0,-3.28389 0.90548,-6.08486 2.71645,-8.4029c1.81097,-2.31804 3.87547,-3.47706 6.19352,-3.47706z" data-paper-data="{&quot;glyphName&quot;:&quot;O&quot;,&quot;glyphIndex&quot;:8,&quot;lastGlyphOfWord&quot;:true,&quot;word&quot;:2}" style="animation-play-state: running;"></path></g></g></g><g fill-rule="nonzero" font-family="none" font-weight="none" font-size="none" text-anchor="none" style="mix-blend-mode: normal; animation-play-state: running;" filter="url(#electric-electric)" fill="none" stroke="#ffffff" opacity="0.5"><g data-paper-data="{&quot;isGlobalGroup&quot;:true,&quot;bounds&quot;:{&quot;x&quot;:65,&quot;y&quot;:185.71892284401122,&quot;width&quot;:420,&quot;height&quot;:98.56215431197757}}" style="animation-play-state: running;"><g data-paper-data="{&quot;isSecondaryText&quot;:true}" style="animation-play-state: running;"><path d="M128.66196,272.45552l4.56896,-8.55154h-3.54278l-2.80979,5.22865l-2.80979,-5.22865h-3.54278l4.5934,8.55154l-4.5934,8.55154h3.54278l2.80979,-5.22865l2.80979,5.22865h3.54278z" data-paper-data="{&quot;glyphName&quot;:&quot;X&quot;,&quot;glyphIndex&quot;:0,&quot;firstGlyphOfWord&quot;:true,&quot;word&quot;:1}" style="animation-play-state: running;"></path><path d="M145.30596,263.90398c-0.39093,0 -0.75742,0.1466 -1.02618,0.39093l-1.49041,1.27051c-0.2932,0.24433 -0.46423,0.58639 -0.51309,0.97732l-2.0768,14.46432h3.15185l0.58639,-3.98257h5.13092l0.56196,3.98257h3.15185l-0.65969,-4.74l-1.39268,-9.72432c-0.04887,-0.39093 -0.24433,-0.73299 -0.53753,-0.97732l-1.46598,-1.27051c-0.2932,-0.24433 -0.65969,-0.39093 -1.02618,-0.39093zM145.89235,267.0314h1.22165l0.58639,0.51309l0.90402,6.35257h-4.2269l0.90402,-6.35257z" data-paper-data="{&quot;glyphName&quot;:&quot;A&quot;,&quot;glyphIndex&quot;:1,&quot;word&quot;:1}" style="animation-play-state: running;"></path><path d="M169.85263,267.0314v-3.12742h-11.117v3.12742h3.98257v13.97566h3.12742v-13.97566z" data-paper-data="{&quot;glyphName&quot;:&quot;T&quot;,&quot;glyphIndex&quot;:2,&quot;word&quot;:1}" style="animation-play-state: running;"></path><path d="M177.04337,277.34211c-1.00175,0 -1.83247,0.80629 -1.83247,1.83247c0,1.00175 0.83072,1.83247 1.83247,1.83247c1.00175,0 1.83247,-0.83072 1.83247,-1.83247c0,-1.02618 -0.83072,-1.83247 -1.83247,-1.83247z" data-paper-data="{&quot;glyphName&quot;:&quot;.&quot;,&quot;glyphIndex&quot;:3,&quot;word&quot;:1}" style="animation-play-state: running;"></path><path d="M189.78924,263.90398c-0.41536,0 -0.80629,0.17103 -1.09948,0.46423l-1.49041,1.49041c-0.2932,0.2932 -0.46423,0.68412 -0.46423,1.09948v10.99483c0,0.41536 0.17103,0.80629 0.46423,1.09948l1.49041,1.49041c0.2932,0.2932 0.68412,0.46423 1.09948,0.46423h5.49742c0.41536,0 0.80629,-0.17103 1.09948,-0.46423l1.51484,-1.49041c0.2932,-0.2932 0.43979,-0.68412 0.43979,-1.09948v-3.07855h-3.12742v2.41886l-0.56196,0.58639h-4.20247l-0.58639,-0.58639v-9.67545l0.58639,-0.58639h4.20247l0.56196,0.58639v2.41886h3.12742v-3.07855c0,-0.41536 -0.1466,-0.80629 -0.43979,-1.09948l-1.51484,-1.49041c-0.2932,-0.2932 -0.68412,-0.46423 -1.09948,-0.46423z" data-paper-data="{&quot;glyphName&quot;:&quot;C&quot;,&quot;glyphIndex&quot;:4,&quot;word&quot;:1}" style="animation-play-state: running;"></path><path d="M209.68152,263.90398c-0.41536,0 -0.80629,0.17103 -1.09948,0.46423l-1.83247,1.83247c-0.2932,0.2932 -0.46423,0.68412 -0.46423,1.09948v10.31071c0,0.41536 0.17103,0.80629 0.46423,1.09948l1.83247,1.83247c0.2932,0.2932 0.68412,0.46423 1.09948,0.46423h4.81329c0.41536,0 0.83072,-0.17103 1.12392,-0.46423l1.83247,-1.83247c0.2932,-0.2932 0.43979,-0.68412 0.43979,-1.09948v-10.31071c0,-0.41536 -0.1466,-0.80629 -0.43979,-1.09948l-1.83247,-1.83247c-0.2932,-0.2932 -0.70856,-0.46423 -1.12392,-0.46423zM210.34121,267.0314h3.51835l0.90402,0.90402v9.01576l-0.90402,0.92845h-3.51835l-0.92845,-0.92845v-9.01576z" data-paper-data="{&quot;glyphName&quot;:&quot;O&quot;,&quot;glyphIndex&quot;:5,&quot;word&quot;:1}" style="animation-play-state: running;"></path><path d="M239.87316,263.97728c-0.65969,-0.19546 -1.36825,0.04887 -1.75917,0.61082l-4.69113,7.03669l-4.69113,-7.03669c-0.36649,-0.56196 -1.09948,-0.80629 -1.75917,-0.61082c-0.65969,0.19546 -1.09948,0.80629 -1.09948,1.49041v15.53937h3.12742v-10.38401l3.12742,4.69113c0.2932,0.43979 0.78185,0.70856 1.29495,0.70856c0.53753,0 1.02618,-0.26876 1.29495,-0.70856l3.12742,-4.69113v10.38401h3.12742v-15.53937c0,-0.68412 -0.43979,-1.29495 -1.09948,-1.49041z" data-paper-data="{&quot;glyphName&quot;:&quot;M&quot;,&quot;glyphIndex&quot;:6,&quot;word&quot;:1}" style="animation-play-state: running;"></path><path d="M257.08358,261.24079l-3.07855,-0.61082l-4.5934,23.04029l3.05412,0.61082z" data-paper-data="{&quot;glyphName&quot;:&quot;/&quot;,&quot;glyphIndex&quot;:7,&quot;word&quot;:1}" style="animation-play-state: running;"></path><path d="M275.84807,267.0314v-3.12742h-11.117v3.12742h3.98257v13.97566h3.12742v-13.97566z" data-paper-data="{&quot;glyphName&quot;:&quot;T&quot;,&quot;glyphIndex&quot;:8,&quot;word&quot;:1}" style="animation-play-state: running;"></path><path d="M295.14346,263.90398h-3.12742v13.38927l-0.56196,0.58639h-4.20247l-0.58639,-0.58639v-13.38927h-3.12742v14.04896c0,0.41536 0.17103,0.80629 0.46423,1.09948l1.49041,1.49041c0.2932,0.2932 0.68412,0.46423 1.09948,0.46423h5.49742c0.41536,0 0.80629,-0.17103 1.09948,-0.46423l1.51484,-1.49041c0.2932,-0.2932 0.43979,-0.68412 0.43979,-1.09948z" data-paper-data="{&quot;glyphName&quot;:&quot;U&quot;,&quot;glyphIndex&quot;:9,&quot;word&quot;:1}" style="animation-play-state: running;"></path><path d="M303.58716,263.90398v17.10308h8.55154c0.41536,0 0.80629,-0.17103 1.09948,-0.46423l1.51484,-1.49041c0.2932,-0.2932 0.43979,-0.68412 0.43979,-1.09948v-10.99483c0,-0.41536 -0.1466,-0.80629 -0.43979,-1.09948l-1.51484,-1.49041c-0.2932,-0.2932 -0.68412,-0.46423 -1.09948,-0.46423zM306.71458,267.0314h4.78886l0.56196,0.58639v9.67545l-0.56196,0.58639h-4.78886z" data-paper-data="{&quot;glyphName&quot;:&quot;D&quot;,&quot;glyphIndex&quot;:10,&quot;word&quot;:1}" style="animation-play-state: running;"></path><path d="M326.53356,263.90398c-0.41536,0 -0.80629,0.17103 -1.09948,0.46423l-1.83247,1.83247c-0.2932,0.2932 -0.46423,0.68412 -0.46423,1.09948v10.31071c0,0.41536 0.17103,0.80629 0.46423,1.09948l1.83247,1.83247c0.2932,0.2932 0.68412,0.46423 1.09948,0.46423h4.81329c0.41536,0 0.83072,-0.17103 1.12392,-0.46423l1.83247,-1.83247c0.2932,-0.2932 0.43979,-0.68412 0.43979,-1.09948v-10.31071c0,-0.41536 -0.1466,-0.80629 -0.43979,-1.09948l-1.83247,-1.83247c-0.2932,-0.2932 -0.70856,-0.46423 -1.12392,-0.46423zM327.19325,267.0314h3.51835l0.90402,0.90402v9.01576l-0.90402,0.92845h-3.51835l-0.92845,-0.92845v-9.01576z" data-paper-data="{&quot;glyphName&quot;:&quot;O&quot;,&quot;glyphIndex&quot;:11,&quot;word&quot;:1}" style="animation-play-state: running;"></path><path d="M345.74171,263.90398c-0.41536,0 -0.80629,0.17103 -1.09948,0.46423l-1.49041,1.49041c-0.2932,0.2932 -0.46423,0.68412 -0.46423,1.09948v10.99483c0,0.41536 0.17103,0.80629 0.46423,1.09948l1.49041,1.49041c0.2932,0.2932 0.68412,0.46423 1.09948,0.46423h5.49742c0.41536,0 0.80629,-0.17103 1.09948,-0.46423l1.51484,-1.49041c0.2932,-0.2932 0.43979,-0.68412 0.43979,-1.09948v-3.07855h-3.12742v2.41886l-0.56196,0.58639h-4.20247l-0.58639,-0.58639v-9.67545l0.58639,-0.58639h4.20247l0.56196,0.58639v2.41886h3.12742v-3.07855c0,-0.41536 -0.1466,-0.80629 -0.43979,-1.09948l-1.51484,-1.49041c-0.2932,-0.2932 -0.68412,-0.46423 -1.09948,-0.46423z" data-paper-data="{&quot;glyphName&quot;:&quot;C&quot;,&quot;glyphIndex&quot;:12,&quot;word&quot;:1}" style="animation-play-state: running;"></path><path d="M372.33705,267.0314v-3.12742h-10.11525v17.10308h10.11525v-3.12742h-6.98783v-3.86041h6.98783v-3.12742h-6.98783v-3.86041z" data-paper-data="{&quot;glyphName&quot;:&quot;E&quot;,&quot;glyphIndex&quot;:13,&quot;word&quot;:1}" style="animation-play-state: running;"></path><path d="M380.76475,263.90398v17.10308h3.12742v-5.98608h3.05412l0.58639,0.43979l1.58814,5.54628h3.24958l-1.85691,-6.54803l1.41711,-1.39268c0.2932,-0.2932 0.43979,-0.68412 0.43979,-1.09948v-5.00876c0,-0.41536 -0.1466,-0.80629 -0.43979,-1.09948l-1.51484,-1.49041c-0.2932,-0.2932 -0.68412,-0.46423 -1.09948,-0.46423zM383.89217,267.0314h4.78886l0.56196,0.58639v3.68938l-0.56196,0.58639h-4.78886z" data-paper-data="{&quot;glyphName&quot;:&quot;R&quot;,&quot;glyphIndex&quot;:14,&quot;word&quot;:1}" style="animation-play-state: running;"></path><path d="M410.42841,267.0314v-3.12742h-11.117v3.12742h3.98257v13.97566h3.12742v-13.97566z" data-paper-data="{&quot;glyphName&quot;:&quot;T&quot;,&quot;glyphIndex&quot;:15,&quot;word&quot;:1}" style="animation-play-state: running;"></path><path d="M421.26474,263.90398c-0.41536,0 -0.80629,0.17103 -1.09948,0.46423l-1.83247,1.83247c-0.2932,0.2932 -0.46423,0.68412 -0.46423,1.09948v10.31071c0,0.41536 0.17103,0.80629 0.46423,1.09948l1.83247,1.83247c0.2932,0.2932 0.68412,0.46423 1.09948,0.46423h4.81329c0.41536,0 0.83072,-0.17103 1.12392,-0.46423l1.83247,-1.83247c0.2932,-0.2932 0.43979,-0.68412 0.43979,-1.09948v-10.31071c0,-0.41536 -0.1466,-0.80629 -0.43979,-1.09948l-1.83247,-1.83247c-0.2932,-0.2932 -0.70856,-0.46423 -1.12392,-0.46423zM421.92443,267.0314h3.51835l0.90402,0.90402v9.01576l-0.90402,0.92845h-3.51835l-0.92845,-0.92845v-9.01576z" data-paper-data="{&quot;glyphName&quot;:&quot;O&quot;,&quot;glyphIndex&quot;:16,&quot;lastGlyphOfWord&quot;:true,&quot;word&quot;:1}" style="animation-play-state: running;"></path></g><g data-paper-data="{&quot;isPrimaryText&quot;:true}" style="animation-play-state: running;"><path d="M108.24595,187.89209v0v0c-14.41532,0 -28.83063,0 -43.24595,0l2.10072,16.91445h10.4674v46.75923h18.10969v-46.75923h11.26423z" data-paper-data="{&quot;glyphName&quot;:&quot;T&quot;,&quot;glyphIndex&quot;:0,&quot;firstGlyphOfWord&quot;:true,&quot;word&quot;:1}" style="animation-play-state: running;"></path><path d="M142.69058,248.23358v0v0c4.10486,-3.06657 6.90583,-7.9079 8.4029,-14.52397c1.49707,-6.61607 2.23957,-13.69093 2.22749,-21.22456c-0.01207,-7.53363 -0.22335,-14.198 -0.63384,-19.9931c-0.07244,-1.52121 -0.14488,-2.9217 -0.21732,-4.20145l-17.02311,-1.01414c0.04829,0.70024 0.12073,1.67816 0.21732,2.93377c0.33805,4.03242 0.65195,9.35064 0.9417,15.95464c0.28976,6.604 0.15695,12.66471 -0.39841,18.18213c-0.55536,5.51742 -1.9317,8.63832 -4.12901,9.36271c-2.19731,0.26561 -3.73663,-1.41256 -4.61797,-5.03449c-0.88134,-3.62194 -1.34012,-8.10107 -1.37634,-13.43739c-0.03622,-5.33632 0.10866,-10.45533 0.43463,-15.35702c0.32597,-4.90169 0.60969,-8.49948 0.85116,-10.79338c0.02415,-0.24146 0.04829,-0.45878 0.07244,-0.65195l-19.08762,0.47085l1.88341,10.8296c0,0.14488 -0.01207,0.44067 -0.03622,0.88737c-0.02415,0.44671 -0.06037,0.88737 -0.10866,1.32201c-0.02415,0.3139 -0.03622,0.53122 -0.03622,0.65195c-0.79683,9.58606 -0.21732,19.0031 1.73853,28.25112c1.95585,9.24802 6.59193,15.65885 13.90824,19.23249c5.91583,2.41463 11.57813,1.7989 16.98689,-1.84719z" data-paper-data="{&quot;glyphName&quot;:&quot;U&quot;,&quot;glyphIndex&quot;:1,&quot;word&quot;:1}" style="animation-play-state: running;"></path><path d="M156.49017,251.38467v0v0c13.23215,0.6761 23.27096,-1.49707 30.11642,-6.51949c6.84546,-5.02242 10.91411,-11.33063 12.20593,-18.92463c1.29182,-7.594 0.21128,-14.91031 -3.24164,-21.94895c-3.45291,-7.03863 -8.87979,-12.24819 -16.28061,-15.62867c-7.40083,-3.38048 -16.3772,-3.3684 -26.92911,0.03622l4.12901,10.79338zM174.59986,208.21116c3.2356,1.20731 5.39669,3.33218 6.48327,6.37461c1.08658,3.04243 1.08658,6.09089 0,9.14539c-1.08658,3.0545 -3.24767,5.17334 -6.48327,6.3565z" data-paper-data="{&quot;glyphName&quot;:&quot;D&quot;,&quot;glyphIndex&quot;:2,&quot;word&quot;:1}" style="animation-play-state: running;"></path><path d="M227.69748,185.71892v0v0c-7.12315,0 -13.47361,3.20542 -19.0514,9.61625c-5.57779,6.41083 -8.36668,14.16782 -8.36668,23.27096c0,9.10314 2.51121,16.8722 7.53363,23.30717c5.02242,6.43498 11.09521,9.65247 18.21835,9.65247c7.12315,0 13.19593,-3.21749 18.21835,-9.65247c5.02242,-6.43498 7.53363,-14.20404 7.53363,-23.30717c0,-9.10314 -2.23957,-16.86012 -6.7187,-23.27096c-4.47913,-6.41083 -10.2682,-9.61625 -17.3672,-9.61625zM226.57468,206.76239c2.31804,0 4.20145,1.15902 5.65022,3.47706c1.44878,2.31804 2.17316,5.11901 2.17316,8.4029c0,3.25974 -0.81494,6.05467 -2.44481,8.38479c-1.62987,2.33011 -3.60383,3.49517 -5.92187,3.49517c-2.31804,0 -4.292,-1.16506 -5.92187,-3.49517c-1.62987,-2.33011 -2.44481,-5.12504 -2.44481,-8.38479c0,-3.28389 0.90548,-6.08486 2.71645,-8.4029c1.81097,-2.31804 3.87547,-3.47706 6.19352,-3.47706z" data-paper-data="{&quot;glyphName&quot;:&quot;O&quot;,&quot;glyphIndex&quot;:3,&quot;lastGlyphOfWord&quot;:true,&quot;word&quot;:1}" style="animation-play-state: running;"></path><path d="M296.87651,186.91416v0v0c-7.7268,0 -14.31873,3.15109 -19.77578,9.45326c-5.45705,6.30217 -8.18558,13.92032 -8.18558,22.85443c0,8.93412 2.72853,16.5583 8.18558,22.87254c5.45705,6.31425 12.04898,9.47137 19.77578,9.47137c5.77096,0 10.9624,-1.83512 15.57434,-5.50535l-2.17316,-16.87823c-0.77268,0.3139 -1.55743,0.60366 -2.35426,0.86927c-5.33632,1.64195 -10.10521,1.88944 -14.30666,0.7425c-4.20145,-1.14695 -6.88168,-3.42273 -8.0407,-6.82735c-0.91756,-3.50121 0.04226,-6.96016 2.87944,-10.37685c2.83719,-3.4167 6.89979,-6.03053 12.18782,-7.8415c2.19731,-0.70024 4.33425,-1.14695 6.41083,-1.34012l-2.06451,-16.11763c-2.6078,-0.91756 -5.31218,-1.37634 -8.11314,-1.37634z" data-paper-data="{&quot;glyphName&quot;:&quot;C&quot;,&quot;glyphIndex&quot;:4,&quot;firstGlyphOfWord&quot;:true,&quot;word&quot;:2}" style="animation-play-state: running;"></path><path d="M349.39462,187.09526v0l-40.67437,0.28976l3.69438,12.35081v51.82994c12.31459,0 24.64126,0 36.97999,0v-16.55226h-19.63091v-7.42497h17.38531v-16.55226h-17.38531v-7.38875h19.63091z" data-paper-data="{&quot;glyphName&quot;:&quot;E&quot;,&quot;glyphIndex&quot;:5,&quot;word&quot;:2}" style="animation-play-state: running;"></path><path d="M393.94446,210.63786v0v0c0,-6.13315 -1.22542,-10.84167 -3.67627,-14.12556c-2.45085,-3.28389 -5.63211,-5.62004 -9.54381,-7.00845c-3.91169,-1.38841 -8.13125,-2.19127 -12.65868,-2.40859c-4.52742,-0.21732 -8.94015,-0.24146 -13.23819,-0.07244c-2.10072,0.04829 -4.10486,0.07244 -6.01242,0.07244l3.80304,12.49569v51.97482h18.07347v-15.35702l10.39496,15.35702h18.07347l-14.92239,-22.05761c6.4712,-4.87754 9.7068,-11.16764 9.7068,-18.8703zM370.69162,202.16252v0v0c2.10072,0.16902 3.77889,1.0564 5.03449,2.66212c1.25561,1.60573 1.88341,3.54346 1.88341,5.81321c0,2.17316 -0.65195,4.05053 -1.95585,5.63211c-1.3039,1.58158 -2.95792,2.51725 -4.96206,2.807z" data-paper-data="{&quot;glyphName&quot;:&quot;R&quot;,&quot;glyphIndex&quot;:6,&quot;word&quot;:2}" style="animation-play-state: running;"></path><path d="M437.95102,187.89209v0v0c-14.41532,0 -28.83063,0 -43.24595,0l2.10072,16.91445h10.4674v46.75923h18.10969v-46.75923h11.26423z" data-paper-data="{&quot;glyphName&quot;:&quot;T&quot;,&quot;glyphIndex&quot;:7,&quot;word&quot;:2}" style="animation-play-state: running;"></path><path d="M460.91411,185.71892v0v0c-7.12315,0 -13.47361,3.20542 -19.0514,9.61625c-5.57779,6.41083 -8.36668,14.16782 -8.36668,23.27096c0,9.10314 2.51121,16.8722 7.53363,23.30717c5.02242,6.43498 11.09521,9.65247 18.21835,9.65247c7.12315,0 13.19593,-3.21749 18.21835,-9.65247c5.02242,-6.43498 7.53363,-14.20404 7.53363,-23.30717c0,-9.10314 -2.23957,-16.86012 -6.7187,-23.27096c-4.47913,-6.41083 -10.2682,-9.61625 -17.3672,-9.61625zM459.79131,206.76239c2.31804,0 4.20145,1.15902 5.65022,3.47706c1.44878,2.31804 2.17316,5.11901 2.17316,8.4029c0,3.25974 -0.81494,6.05467 -2.44481,8.38479c-1.62987,2.33011 -3.60383,3.49517 -5.92187,3.49517c-2.31804,0 -4.292,-1.16506 -5.92187,-3.49517c-1.62987,-2.33011 -2.44481,-5.12504 -2.44481,-8.38479c0,-3.28389 0.90548,-6.08486 2.71645,-8.4029c1.81097,-2.31804 3.87547,-3.47706 6.19352,-3.47706z" data-paper-data="{&quot;glyphName&quot;:&quot;O&quot;,&quot;glyphIndex&quot;:8,&quot;lastGlyphOfWord&quot;:true,&quot;word&quot;:2}" style="animation-play-state: running;"></path></g></g></g><g fill-rule="nonzero" font-family="none" font-weight="none" font-size="none" text-anchor="none" style="mix-blend-mode: normal; animation-play-state: running;" filter="url(#electric-filter)" fill="#ffffff" stroke="none"><g data-paper-data="{&quot;isGlobalGroup&quot;:true,&quot;bounds&quot;:{&quot;x&quot;:65,&quot;y&quot;:185.71892284401122,&quot;width&quot;:420,&quot;height&quot;:98.56215431197757}}" style="animation-play-state: running;"><g data-paper-data="{&quot;isSecondaryText&quot;:true}" style="animation-play-state: running;"><path d="M128.66196,272.45552l4.56896,-8.55154h-3.54278l-2.80979,5.22865l-2.80979,-5.22865h-3.54278l4.5934,8.55154l-4.5934,8.55154h3.54278l2.80979,-5.22865l2.80979,5.22865h3.54278z" data-paper-data="{&quot;glyphName&quot;:&quot;X&quot;,&quot;glyphIndex&quot;:0,&quot;firstGlyphOfWord&quot;:true,&quot;word&quot;:1}" style="animation-play-state: running;"></path><path d="M145.30596,263.90398c-0.39093,0 -0.75742,0.1466 -1.02618,0.39093l-1.49041,1.27051c-0.2932,0.24433 -0.46423,0.58639 -0.51309,0.97732l-2.0768,14.46432h3.15185l0.58639,-3.98257h5.13092l0.56196,3.98257h3.15185l-0.65969,-4.74l-1.39268,-9.72432c-0.04887,-0.39093 -0.24433,-0.73299 -0.53753,-0.97732l-1.46598,-1.27051c-0.2932,-0.24433 -0.65969,-0.39093 -1.02618,-0.39093zM145.89235,267.0314h1.22165l0.58639,0.51309l0.90402,6.35257h-4.2269l0.90402,-6.35257z" data-paper-data="{&quot;glyphName&quot;:&quot;A&quot;,&quot;glyphIndex&quot;:1,&quot;word&quot;:1}" style="animation-play-state: running;"></path><path d="M169.85263,267.0314v-3.12742h-11.117v3.12742h3.98257v13.97566h3.12742v-13.97566z" data-paper-data="{&quot;glyphName&quot;:&quot;T&quot;,&quot;glyphIndex&quot;:2,&quot;word&quot;:1}" style="animation-play-state: running;"></path><path d="M177.04337,277.34211c-1.00175,0 -1.83247,0.80629 -1.83247,1.83247c0,1.00175 0.83072,1.83247 1.83247,1.83247c1.00175,0 1.83247,-0.83072 1.83247,-1.83247c0,-1.02618 -0.83072,-1.83247 -1.83247,-1.83247z" data-paper-data="{&quot;glyphName&quot;:&quot;.&quot;,&quot;glyphIndex&quot;:3,&quot;word&quot;:1}" style="animation-play-state: running;"></path><path d="M189.78924,263.90398c-0.41536,0 -0.80629,0.17103 -1.09948,0.46423l-1.49041,1.49041c-0.2932,0.2932 -0.46423,0.68412 -0.46423,1.09948v10.99483c0,0.41536 0.17103,0.80629 0.46423,1.09948l1.49041,1.49041c0.2932,0.2932 0.68412,0.46423 1.09948,0.46423h5.49742c0.41536,0 0.80629,-0.17103 1.09948,-0.46423l1.51484,-1.49041c0.2932,-0.2932 0.43979,-0.68412 0.43979,-1.09948v-3.07855h-3.12742v2.41886l-0.56196,0.58639h-4.20247l-0.58639,-0.58639v-9.67545l0.58639,-0.58639h4.20247l0.56196,0.58639v2.41886h3.12742v-3.07855c0,-0.41536 -0.1466,-0.80629 -0.43979,-1.09948l-1.51484,-1.49041c-0.2932,-0.2932 -0.68412,-0.46423 -1.09948,-0.46423z" data-paper-data="{&quot;glyphName&quot;:&quot;C&quot;,&quot;glyphIndex&quot;:4,&quot;word&quot;:1}" style="animation-play-state: running;"></path><path d="M209.68152,263.90398c-0.41536,0 -0.80629,0.17103 -1.09948,0.46423l-1.83247,1.83247c-0.2932,0.2932 -0.46423,0.68412 -0.46423,1.09948v10.31071c0,0.41536 0.17103,0.80629 0.46423,1.09948l1.83247,1.83247c0.2932,0.2932 0.68412,0.46423 1.09948,0.46423h4.81329c0.41536,0 0.83072,-0.17103 1.12392,-0.46423l1.83247,-1.83247c0.2932,-0.2932 0.43979,-0.68412 0.43979,-1.09948v-10.31071c0,-0.41536 -0.1466,-0.80629 -0.43979,-1.09948l-1.83247,-1.83247c-0.2932,-0.2932 -0.70856,-0.46423 -1.12392,-0.46423zM210.34121,267.0314h3.51835l0.90402,0.90402v9.01576l-0.90402,0.92845h-3.51835l-0.92845,-0.92845v-9.01576z" data-paper-data="{&quot;glyphName&quot;:&quot;O&quot;,&quot;glyphIndex&quot;:5,&quot;word&quot;:1}" style="animation-play-state: running;"></path><path d="M239.87316,263.97728c-0.65969,-0.19546 -1.36825,0.04887 -1.75917,0.61082l-4.69113,7.03669l-4.69113,-7.03669c-0.36649,-0.56196 -1.09948,-0.80629 -1.75917,-0.61082c-0.65969,0.19546 -1.09948,0.80629 -1.09948,1.49041v15.53937h3.12742v-10.38401l3.12742,4.69113c0.2932,0.43979 0.78185,0.70856 1.29495,0.70856c0.53753,0 1.02618,-0.26876 1.29495,-0.70856l3.12742,-4.69113v10.38401h3.12742v-15.53937c0,-0.68412 -0.43979,-1.29495 -1.09948,-1.49041z" data-paper-data="{&quot;glyphName&quot;:&quot;M&quot;,&quot;glyphIndex&quot;:6,&quot;word&quot;:1}" style="animation-play-state: running;"></path><path d="M257.08358,261.24079l-3.07855,-0.61082l-4.5934,23.04029l3.05412,0.61082z" data-paper-data="{&quot;glyphName&quot;:&quot;/&quot;,&quot;glyphIndex&quot;:7,&quot;word&quot;:1}" style="animation-play-state: running;"></path><path d="M275.84807,267.0314v-3.12742h-11.117v3.12742h3.98257v13.97566h3.12742v-13.97566z" data-paper-data="{&quot;glyphName&quot;:&quot;T&quot;,&quot;glyphIndex&quot;:8,&quot;word&quot;:1}" style="animation-play-state: running;"></path><path d="M295.14346,263.90398h-3.12742v13.38927l-0.56196,0.58639h-4.20247l-0.58639,-0.58639v-13.38927h-3.12742v14.04896c0,0.41536 0.17103,0.80629 0.46423,1.09948l1.49041,1.49041c0.2932,0.2932 0.68412,0.46423 1.09948,0.46423h5.49742c0.41536,0 0.80629,-0.17103 1.09948,-0.46423l1.51484,-1.49041c0.2932,-0.2932 0.43979,-0.68412 0.43979,-1.09948z" data-paper-data="{&quot;glyphName&quot;:&quot;U&quot;,&quot;glyphIndex&quot;:9,&quot;word&quot;:1}" style="animation-play-state: running;"></path><path d="M303.58716,263.90398v17.10308h8.55154c0.41536,0 0.80629,-0.17103 1.09948,-0.46423l1.51484,-1.49041c0.2932,-0.2932 0.43979,-0.68412 0.43979,-1.09948v-10.99483c0,-0.41536 -0.1466,-0.80629 -0.43979,-1.09948l-1.51484,-1.49041c-0.2932,-0.2932 -0.68412,-0.46423 -1.09948,-0.46423zM306.71458,267.0314h4.78886l0.56196,0.58639v9.67545l-0.56196,0.58639h-4.78886z" data-paper-data="{&quot;glyphName&quot;:&quot;D&quot;,&quot;glyphIndex&quot;:10,&quot;word&quot;:1}" style="animation-play-state: running;"></path><path d="M326.53356,263.90398c-0.41536,0 -0.80629,0.17103 -1.09948,0.46423l-1.83247,1.83247c-0.2932,0.2932 -0.46423,0.68412 -0.46423,1.09948v10.31071c0,0.41536 0.17103,0.80629 0.46423,1.09948l1.83247,1.83247c0.2932,0.2932 0.68412,0.46423 1.09948,0.46423h4.81329c0.41536,0 0.83072,-0.17103 1.12392,-0.46423l1.83247,-1.83247c0.2932,-0.2932 0.43979,-0.68412 0.43979,-1.09948v-10.31071c0,-0.41536 -0.1466,-0.80629 -0.43979,-1.09948l-1.83247,-1.83247c-0.2932,-0.2932 -0.70856,-0.46423 -1.12392,-0.46423zM327.19325,267.0314h3.51835l0.90402,0.90402v9.01576l-0.90402,0.92845h-3.51835l-0.92845,-0.92845v-9.01576z" data-paper-data="{&quot;glyphName&quot;:&quot;O&quot;,&quot;glyphIndex&quot;:11,&quot;word&quot;:1}" style="animation-play-state: running;"></path><path d="M345.74171,263.90398c-0.41536,0 -0.80629,0.17103 -1.09948,0.46423l-1.49041,1.49041c-0.2932,0.2932 -0.46423,0.68412 -0.46423,1.09948v10.99483c0,0.41536 0.17103,0.80629 0.46423,1.09948l1.49041,1.49041c0.2932,0.2932 0.68412,0.46423 1.09948,0.46423h5.49742c0.41536,0 0.80629,-0.17103 1.09948,-0.46423l1.51484,-1.49041c0.2932,-0.2932 0.43979,-0.68412 0.43979,-1.09948v-3.07855h-3.12742v2.41886l-0.56196,0.58639h-4.20247l-0.58639,-0.58639v-9.67545l0.58639,-0.58639h4.20247l0.56196,0.58639v2.41886h3.12742v-3.07855c0,-0.41536 -0.1466,-0.80629 -0.43979,-1.09948l-1.51484,-1.49041c-0.2932,-0.2932 -0.68412,-0.46423 -1.09948,-0.46423z" data-paper-data="{&quot;glyphName&quot;:&quot;C&quot;,&quot;glyphIndex&quot;:12,&quot;word&quot;:1}" style="animation-play-state: running;"></path><path d="M372.33705,267.0314v-3.12742h-10.11525v17.10308h10.11525v-3.12742h-6.98783v-3.86041h6.98783v-3.12742h-6.98783v-3.86041z" data-paper-data="{&quot;glyphName&quot;:&quot;E&quot;,&quot;glyphIndex&quot;:13,&quot;word&quot;:1}" style="animation-play-state: running;"></path><path d="M380.76475,263.90398v17.10308h3.12742v-5.98608h3.05412l0.58639,0.43979l1.58814,5.54628h3.24958l-1.85691,-6.54803l1.41711,-1.39268c0.2932,-0.2932 0.43979,-0.68412 0.43979,-1.09948v-5.00876c0,-0.41536 -0.1466,-0.80629 -0.43979,-1.09948l-1.51484,-1.49041c-0.2932,-0.2932 -0.68412,-0.46423 -1.09948,-0.46423zM383.89217,267.0314h4.78886l0.56196,0.58639v3.68938l-0.56196,0.58639h-4.78886z" data-paper-data="{&quot;glyphName&quot;:&quot;R&quot;,&quot;glyphIndex&quot;:14,&quot;word&quot;:1}" style="animation-play-state: running;"></path><path d="M410.42841,267.0314v-3.12742h-11.117v3.12742h3.98257v13.97566h3.12742v-13.97566z" data-paper-data="{&quot;glyphName&quot;:&quot;T&quot;,&quot;glyphIndex&quot;:15,&quot;word&quot;:1}" style="animation-play-state: running;"></path><path d="M421.26474,263.90398c-0.41536,0 -0.80629,0.17103 -1.09948,0.46423l-1.83247,1.83247c-0.2932,0.2932 -0.46423,0.68412 -0.46423,1.09948v10.31071c0,0.41536 0.17103,0.80629 0.46423,1.09948l1.83247,1.83247c0.2932,0.2932 0.68412,0.46423 1.09948,0.46423h4.81329c0.41536,0 0.83072,-0.17103 1.12392,-0.46423l1.83247,-1.83247c0.2932,-0.2932 0.43979,-0.68412 0.43979,-1.09948v-10.31071c0,-0.41536 -0.1466,-0.80629 -0.43979,-1.09948l-1.83247,-1.83247c-0.2932,-0.2932 -0.70856,-0.46423 -1.12392,-0.46423zM421.92443,267.0314h3.51835l0.90402,0.90402v9.01576l-0.90402,0.92845h-3.51835l-0.92845,-0.92845v-9.01576z" data-paper-data="{&quot;glyphName&quot;:&quot;O&quot;,&quot;glyphIndex&quot;:16,&quot;lastGlyphOfWord&quot;:true,&quot;word&quot;:1}" style="animation-play-state: running;"></path></g><g data-paper-data="{&quot;isPrimaryText&quot;:true}" style="animation-play-state: running;"><path d="M108.24595,187.89209v0v0c-14.41532,0 -28.83063,0 -43.24595,0l2.10072,16.91445h10.4674v46.75923h18.10969v-46.75923h11.26423z" data-paper-data="{&quot;glyphName&quot;:&quot;T&quot;,&quot;glyphIndex&quot;:0,&quot;firstGlyphOfWord&quot;:true,&quot;word&quot;:1}" style="animation-play-state: running;"></path><path d="M142.69058,248.23358v0v0c4.10486,-3.06657 6.90583,-7.9079 8.4029,-14.52397c1.49707,-6.61607 2.23957,-13.69093 2.22749,-21.22456c-0.01207,-7.53363 -0.22335,-14.198 -0.63384,-19.9931c-0.07244,-1.52121 -0.14488,-2.9217 -0.21732,-4.20145l-17.02311,-1.01414c0.04829,0.70024 0.12073,1.67816 0.21732,2.93377c0.33805,4.03242 0.65195,9.35064 0.9417,15.95464c0.28976,6.604 0.15695,12.66471 -0.39841,18.18213c-0.55536,5.51742 -1.9317,8.63832 -4.12901,9.36271c-2.19731,0.26561 -3.73663,-1.41256 -4.61797,-5.03449c-0.88134,-3.62194 -1.34012,-8.10107 -1.37634,-13.43739c-0.03622,-5.33632 0.10866,-10.45533 0.43463,-15.35702c0.32597,-4.90169 0.60969,-8.49948 0.85116,-10.79338c0.02415,-0.24146 0.04829,-0.45878 0.07244,-0.65195l-19.08762,0.47085l1.88341,10.8296c0,0.14488 -0.01207,0.44067 -0.03622,0.88737c-0.02415,0.44671 -0.06037,0.88737 -0.10866,1.32201c-0.02415,0.3139 -0.03622,0.53122 -0.03622,0.65195c-0.79683,9.58606 -0.21732,19.0031 1.73853,28.25112c1.95585,9.24802 6.59193,15.65885 13.90824,19.23249c5.91583,2.41463 11.57813,1.7989 16.98689,-1.84719z" data-paper-data="{&quot;glyphName&quot;:&quot;U&quot;,&quot;glyphIndex&quot;:1,&quot;word&quot;:1}" style="animation-play-state: running;"></path><path d="M156.49017,251.38467v0v0c13.23215,0.6761 23.27096,-1.49707 30.11642,-6.51949c6.84546,-5.02242 10.91411,-11.33063 12.20593,-18.92463c1.29182,-7.594 0.21128,-14.91031 -3.24164,-21.94895c-3.45291,-7.03863 -8.87979,-12.24819 -16.28061,-15.62867c-7.40083,-3.38048 -16.3772,-3.3684 -26.92911,0.03622l4.12901,10.79338zM174.59986,208.21116c3.2356,1.20731 5.39669,3.33218 6.48327,6.37461c1.08658,3.04243 1.08658,6.09089 0,9.14539c-1.08658,3.0545 -3.24767,5.17334 -6.48327,6.3565z" data-paper-data="{&quot;glyphName&quot;:&quot;D&quot;,&quot;glyphIndex&quot;:2,&quot;word&quot;:1}" style="animation-play-state: running;"></path><path d="M227.69748,185.71892v0v0c-7.12315,0 -13.47361,3.20542 -19.0514,9.61625c-5.57779,6.41083 -8.36668,14.16782 -8.36668,23.27096c0,9.10314 2.51121,16.8722 7.53363,23.30717c5.02242,6.43498 11.09521,9.65247 18.21835,9.65247c7.12315,0 13.19593,-3.21749 18.21835,-9.65247c5.02242,-6.43498 7.53363,-14.20404 7.53363,-23.30717c0,-9.10314 -2.23957,-16.86012 -6.7187,-23.27096c-4.47913,-6.41083 -10.2682,-9.61625 -17.3672,-9.61625zM226.57468,206.76239c2.31804,0 4.20145,1.15902 5.65022,3.47706c1.44878,2.31804 2.17316,5.11901 2.17316,8.4029c0,3.25974 -0.81494,6.05467 -2.44481,8.38479c-1.62987,2.33011 -3.60383,3.49517 -5.92187,3.49517c-2.31804,0 -4.292,-1.16506 -5.92187,-3.49517c-1.62987,-2.33011 -2.44481,-5.12504 -2.44481,-8.38479c0,-3.28389 0.90548,-6.08486 2.71645,-8.4029c1.81097,-2.31804 3.87547,-3.47706 6.19352,-3.47706z" data-paper-data="{&quot;glyphName&quot;:&quot;O&quot;,&quot;glyphIndex&quot;:3,&quot;lastGlyphOfWord&quot;:true,&quot;word&quot;:1}" style="animation-play-state: running;"></path><path d="M296.87651,186.91416v0v0c-7.7268,0 -14.31873,3.15109 -19.77578,9.45326c-5.45705,6.30217 -8.18558,13.92032 -8.18558,22.85443c0,8.93412 2.72853,16.5583 8.18558,22.87254c5.45705,6.31425 12.04898,9.47137 19.77578,9.47137c5.77096,0 10.9624,-1.83512 15.57434,-5.50535l-2.17316,-16.87823c-0.77268,0.3139 -1.55743,0.60366 -2.35426,0.86927c-5.33632,1.64195 -10.10521,1.88944 -14.30666,0.7425c-4.20145,-1.14695 -6.88168,-3.42273 -8.0407,-6.82735c-0.91756,-3.50121 0.04226,-6.96016 2.87944,-10.37685c2.83719,-3.4167 6.89979,-6.03053 12.18782,-7.8415c2.19731,-0.70024 4.33425,-1.14695 6.41083,-1.34012l-2.06451,-16.11763c-2.6078,-0.91756 -5.31218,-1.37634 -8.11314,-1.37634z" data-paper-data="{&quot;glyphName&quot;:&quot;C&quot;,&quot;glyphIndex&quot;:4,&quot;firstGlyphOfWord&quot;:true,&quot;word&quot;:2}" style="animation-play-state: running;"></path><path d="M349.39462,187.09526v0l-40.67437,0.28976l3.69438,12.35081v51.82994c12.31459,0 24.64126,0 36.97999,0v-16.55226h-19.63091v-7.42497h17.38531v-16.55226h-17.38531v-7.38875h19.63091z" data-paper-data="{&quot;glyphName&quot;:&quot;E&quot;,&quot;glyphIndex&quot;:5,&quot;word&quot;:2}" style="animation-play-state: running;"></path><path d="M393.94446,210.63786v0v0c0,-6.13315 -1.22542,-10.84167 -3.67627,-14.12556c-2.45085,-3.28389 -5.63211,-5.62004 -9.54381,-7.00845c-3.91169,-1.38841 -8.13125,-2.19127 -12.65868,-2.40859c-4.52742,-0.21732 -8.94015,-0.24146 -13.23819,-0.07244c-2.10072,0.04829 -4.10486,0.07244 -6.01242,0.07244l3.80304,12.49569v51.97482h18.07347v-15.35702l10.39496,15.35702h18.07347l-14.92239,-22.05761c6.4712,-4.87754 9.7068,-11.16764 9.7068,-18.8703zM370.69162,202.16252v0v0c2.10072,0.16902 3.77889,1.0564 5.03449,2.66212c1.25561,1.60573 1.88341,3.54346 1.88341,5.81321c0,2.17316 -0.65195,4.05053 -1.95585,5.63211c-1.3039,1.58158 -2.95792,2.51725 -4.96206,2.807z" data-paper-data="{&quot;glyphName&quot;:&quot;R&quot;,&quot;glyphIndex&quot;:6,&quot;word&quot;:2}" style="animation-play-state: running;"></path><path d="M437.95102,187.89209v0v0c-14.41532,0 -28.83063,0 -43.24595,0l2.10072,16.91445h10.4674v46.75923h18.10969v-46.75923h11.26423z" data-paper-data="{&quot;glyphName&quot;:&quot;T&quot;,&quot;glyphIndex&quot;:7,&quot;word&quot;:2}" style="animation-play-state: running;"></path><path d="M460.91411,185.71892v0v0c-7.12315,0 -13.47361,3.20542 -19.0514,9.61625c-5.57779,6.41083 -8.36668,14.16782 -8.36668,23.27096c0,9.10314 2.51121,16.8722 7.53363,23.30717c5.02242,6.43498 11.09521,9.65247 18.21835,9.65247c7.12315,0 13.19593,-3.21749 18.21835,-9.65247c5.02242,-6.43498 7.53363,-14.20404 7.53363,-23.30717c0,-9.10314 -2.23957,-16.86012 -6.7187,-23.27096c-4.47913,-6.41083 -10.2682,-9.61625 -17.3672,-9.61625zM459.79131,206.76239c2.31804,0 4.20145,1.15902 5.65022,3.47706c1.44878,2.31804 2.17316,5.11901 2.17316,8.4029c0,3.25974 -0.81494,6.05467 -2.44481,8.38479c-1.62987,2.33011 -3.60383,3.49517 -5.92187,3.49517c-2.31804,0 -4.292,-1.16506 -5.92187,-3.49517c-1.62987,-2.33011 -2.44481,-5.12504 -2.44481,-8.38479c0,-3.28389 0.90548,-6.08486 2.71645,-8.4029c1.81097,-2.31804 3.87547,-3.47706 6.19352,-3.47706z" data-paper-data="{&quot;glyphName&quot;:&quot;O&quot;,&quot;glyphIndex&quot;:8,&quot;lastGlyphOfWord&quot;:true,&quot;word&quot;:2}" style="animation-play-state: running;"></path></g></g></g></svg>