<svg width="156" height="163" viewBox="0 0 156 163" fill="#FFF" xmlns="http://www.w3.org/2000/svg">
<path d="M101.75 98.3472L80.92 86.2972C80.8702 86.2672 80.8291 86.2246 80.801 86.1737C80.7729 86.1228 80.7588 86.0653 80.76 86.0072L80.77 0.347174C80.7715 0.290468 80.7876 0.235097 80.8167 0.186408C80.8458 0.137718 80.887 0.097349 80.9362 0.0692051C80.9855 0.0410613 81.0411 0.0260894 81.0979 0.0257328C81.1546 0.0253763 81.2104 0.0396456 81.26 0.0671681L155.45 42.8872C155.5 42.9171 155.541 42.9597 155.569 43.0106C155.597 43.0616 155.611 43.119 155.61 43.1772V128.867C155.61 128.925 155.594 128.982 155.564 129.032C155.534 129.082 155.492 129.124 155.441 129.152C155.391 129.181 155.333 129.195 155.275 129.194C155.217 129.193 155.16 129.177 155.11 129.147L134.26 117.087C134.21 117.057 134.169 117.015 134.141 116.964C134.113 116.913 134.099 116.855 134.1 116.797L134.11 82.3672C134.111 82.309 134.097 82.2516 134.069 82.2007C134.041 82.1497 134 82.1071 133.95 82.0772L102.66 64.0072C102.61 63.9772 102.553 63.9609 102.495 63.9601C102.437 63.9592 102.38 63.9736 102.329 64.0021C102.278 64.0305 102.236 64.0719 102.206 64.1219C102.176 64.172 102.161 64.229 102.16 64.2872L102.25 98.0672C102.25 98.1253 102.234 98.1824 102.204 98.2324C102.174 98.2825 102.132 98.3238 102.081 98.3523C102.031 98.3807 101.973 98.3952 101.915 98.3943C101.857 98.3934 101.8 98.3771 101.75 98.3472ZM102.64 37.2572C102.594 37.2308 102.543 37.217 102.49 37.217C102.437 37.217 102.386 37.2309 102.34 37.2572C102.294 37.2836 102.256 37.3215 102.23 37.3671C102.204 37.4127 102.19 37.4645 102.19 37.5172L102.22 46.8072C102.22 46.8599 102.234 46.9116 102.26 46.9573C102.287 47.0029 102.324 47.0408 102.37 47.0672L133.66 65.1372C133.706 65.1635 133.757 65.1774 133.81 65.1774C133.863 65.1774 133.915 65.1635 133.96 65.1371C134.006 65.1108 134.044 65.0729 134.07 65.0272C134.096 64.9816 134.11 64.9298 134.11 64.8772V55.5772C134.11 55.5245 134.096 55.4727 134.07 55.4271C134.044 55.3814 134.006 55.3435 133.96 55.3172L102.64 37.2572Z"/>
<path d="M0.0500274 68.8072L0.0300232 43.1772C0.0287698 43.119 0.0429105 43.0616 0.0710083 43.0106C0.099106 42.9597 0.140166 42.9171 0.190027 42.8872L21.1 30.7672C21.1499 30.7372 21.2068 30.7209 21.265 30.72C21.3231 30.7191 21.3805 30.7336 21.4313 30.7621C21.482 30.7905 21.5244 30.8318 21.554 30.8819C21.5837 30.932 21.5995 30.989 21.6 31.0472V54.8972C21.6 54.983 21.6334 55.0654 21.6931 55.127C21.7529 55.1886 21.8342 55.2246 21.92 55.2272L36.46 55.6272C36.5455 55.6281 36.6279 55.5958 36.69 55.5372L53.29 40.9072C53.3251 40.8758 53.3531 40.8372 53.3721 40.7941C53.3911 40.751 53.4006 40.7043 53.4 40.6572L53.36 12.3972C53.3588 12.339 53.3729 12.2816 53.401 12.2306C53.4291 12.1797 53.4702 12.1371 53.52 12.1072L74.35 0.0471657C74.3999 0.0171921 74.4568 0.000933142 74.515 3.89761e-05C74.5731 -0.00085519 74.6305 0.01365 74.6813 0.0420769C74.732 0.0705039 74.7744 0.111845 74.804 0.161912C74.8337 0.211979 74.8495 0.268987 74.85 0.327165V41.0672C74.8506 41.1143 74.8411 41.161 74.8221 41.2041C74.8031 41.2472 74.7751 41.2858 74.74 41.3172L58.43 55.6872C58.3793 55.7308 58.3431 55.7889 58.3261 55.8536C58.3092 55.9183 58.3123 55.9866 58.3351 56.0496C58.3579 56.1125 58.3992 56.167 58.4537 56.2058C58.5081 56.2447 58.5731 56.2661 58.64 56.2672L74.53 56.6672C74.6158 56.6698 74.6972 56.7057 74.7569 56.7673C74.8167 56.8289 74.8501 56.9114 74.85 56.9972V86.0072C74.8513 86.0653 74.8371 86.1228 74.809 86.1737C74.7809 86.2246 74.7399 86.2672 74.69 86.2972L53.83 98.3672C53.7802 98.3971 53.7233 98.4134 53.6651 98.4143C53.6069 98.4152 53.5495 98.4007 53.4988 98.3723C53.448 98.3438 53.4057 98.3025 53.376 98.2524C53.3464 98.2024 53.3305 98.1453 53.33 98.0872L53.39 70.9772C53.3901 70.8913 53.3567 70.8089 53.2969 70.7473C53.2372 70.6857 53.1558 70.6498 53.07 70.6472L42.06 70.3072C41.9746 70.3063 41.8922 70.3385 41.83 70.3972L21.7 88.2072C21.6649 88.2386 21.6369 88.2771 21.6179 88.3202C21.599 88.3634 21.5894 88.4101 21.59 88.4572L21.6 116.767C21.6003 116.826 21.5846 116.884 21.5547 116.935C21.5248 116.986 21.4818 117.028 21.43 117.057L0.520029 129.117C0.470427 129.145 0.414568 129.159 0.357843 129.159C0.301118 129.158 0.245443 129.143 0.196191 129.115C0.14694 129.087 0.105775 129.047 0.0766693 128.998C0.0475634 128.949 0.0314939 128.894 0.0300232 128.837L2.43716e-05 88.1072C-0.000548208 88.0601 0.00897433 88.0134 0.027948 87.9703C0.0469216 87.9271 0.074907 87.8886 0.110025 87.8572L20.15 70.1972C20.2007 70.1535 20.2369 70.0955 20.2539 70.0307C20.2709 69.966 20.2677 69.8977 20.245 69.8348C20.2222 69.7719 20.1808 69.7174 20.1264 69.6785C20.0719 69.6396 20.0069 69.6183 19.94 69.6172L0.370019 69.1372C0.284243 69.1346 0.202862 69.0986 0.143121 69.037C0.0833808 68.9754 0.049988 68.893 0.0500274 68.8072Z"/>
<path d="M82.0201 118.537L78.3 116.437C78.0726 116.313 77.8124 116.262 77.5558 116.292C77.2993 116.323 77.0595 116.433 76.8701 116.607C76.3301 117.107 75.72 117.474 75.04 117.707C74.7934 117.794 74.5567 117.771 74.33 117.637L53.94 105.877C53.8674 105.835 53.8071 105.774 53.7652 105.702C53.7233 105.629 53.7012 105.546 53.7012 105.462C53.7012 105.378 53.7233 105.296 53.7652 105.223C53.8071 105.15 53.8674 105.089 53.94 105.047L77.4301 91.4972C77.549 91.4297 77.6833 91.3942 77.82 91.3942C77.9568 91.3942 78.0912 91.4297 78.2101 91.4972L151.99 134.117C152.059 134.157 152.116 134.213 152.155 134.282C152.195 134.35 152.216 134.428 152.216 134.507C152.216 134.586 152.195 134.664 152.155 134.732C152.116 134.801 152.059 134.858 151.99 134.897L128.47 148.477C128.361 148.541 128.237 148.575 128.11 148.575C127.983 148.575 127.859 148.541 127.75 148.477L107.42 136.727C106.747 136.341 106.76 135.977 107.46 135.637L108.75 135.007C109.397 134.687 109.407 134.351 108.78 133.997L104.8 131.717C104.427 131.504 104.053 131.504 103.68 131.717L51.4001 161.917C51.0667 162.111 50.7334 162.111 50.4001 161.917L29.91 150.057C29.8557 150.028 29.8102 149.985 29.7785 149.932C29.7468 149.879 29.73 149.819 29.73 149.757C29.73 149.696 29.7468 149.635 29.7785 149.582C29.8102 149.529 29.8557 149.486 29.91 149.457L82.0301 119.367C82.5101 119.087 82.5067 118.811 82.0201 118.537Z"/>
</svg>