<svg viewBox="0 0 24 24" xmlns="http://www.w3.org/2000/svg"><path d="M22 12C22 13.3132 21.7413 14.6136 21.2388 15.8268C20.7362 17.0401 19.9997 18.1425 19.0711 19.0711C18.1425 19.9997 17.0401 20.7362 15.8268 21.2388C14.6136 21.7413 13.3132 22 12 22C9.34783 22 6.8043 20.9464 4.92893 19.0711C3.05357 17.1957 2 14.6522 2 12C2 9.34783 3.05357 6.8043 4.92893 4.92893C6.8043 3.05357 9.34783 2 12 2C13.3132 2 14.6136 2.25866 15.8268 2.7612C17.0401 3.26375 18.1425 4.00035 19.0711 4.92893C19.9997 5.85752 20.7362 6.95991 21.2388 8.17317C21.7413 9.38642 22 10.6868 22 12ZM20.1678 12.0004C20.1678 10.9279 19.9565 9.86593 19.5461 8.87507C19.1357 7.88421 18.5341 6.9839 17.7757 6.22553C17.0174 5.46716 16.117 4.86558 15.1262 4.45516C14.1353 4.04473 13.0733 3.83349 12.0008 3.83349C9.83483 3.83349 7.75754 4.69393 6.22594 6.22553C4.69435 7.75712 3.8339 9.83441 3.8339 12.0004C3.8339 14.1664 4.69435 16.2437 6.22594 17.7753C7.75754 19.3069 9.83483 20.1673 12.0008 20.1673C13.0733 20.1673 14.1353 19.9561 15.1262 19.5457C16.117 19.1353 17.0174 18.5337 17.7757 17.7753C18.5341 17.0169 19.1357 16.1166 19.5461 15.1258C19.9565 14.1349 20.1678 13.0729 20.1678 12.0004Z"/><path d="M9.68151 7.64082C10.6143 6.76063 12.1462 6.68377 13.2963 7.12115C13.6516 7.25622 13.9525 7.44713 14.199 7.69388C14.9769 8.47214 15.0262 9.50648 14.5056 10.4422C14.2684 10.8689 13.9205 11.2682 13.4621 11.6403C13.0803 11.9507 12.7461 12.1963 12.7026 12.7369C12.6843 12.9604 12.7173 13.2052 12.6529 13.4091C12.4825 13.9484 11.7824 14.0031 11.3345 13.8945C10.9535 13.8017 10.7906 13.46 10.7685 13.0895C10.7129 12.1516 10.9815 11.2974 11.7038 10.7179C11.8837 10.5737 12.0643 10.4283 12.2456 10.2818C12.4666 10.103 12.7227 9.83106 12.7565 9.53488C12.8037 9.12633 12.5681 8.9162 12.1968 8.83766C11.8701 8.7686 11.572 8.78531 11.3024 8.88779C11.1198 8.95714 10.9845 9.11547 10.8813 9.28047C10.6941 9.58042 10.4439 9.80516 10.0679 9.78219C9.85181 9.7691 9.66257 9.70379 9.50021 9.58626C9.19915 9.36848 9.07592 9.05517 9.1305 8.64634C9.18147 8.2641 9.40413 7.90275 9.68151 7.64082Z"/><path d="M11.7168 16.7978C12.3886 16.7978 12.9332 16.2532 12.9332 15.5813C12.9332 14.9095 12.3886 14.3649 11.7168 14.3649C11.0449 14.3649 10.5003 14.9095 10.5003 15.5813C10.5003 16.2532 11.0449 16.7978 11.7168 16.7978Z"/></svg>