<svg viewBox="0 0 24 24" xmlns="http://www.w3.org/2000/svg"><path d="M16.4177 6.96398C16.4319 6.18072 16.4618 5.4331 16.2035 4.68359C15.542 2.76694 13.5999 1.65886 11.6542 2.09431C10.0279 2.45852 8.81811 3.82065 8.6085 5.50809C8.54966 5.9787 8.58368 6.49712 8.57587 6.97804C8.57556 6.99429 8.56759 7.0021 8.55196 7.00148C7.69853 6.95898 6.97104 7.20381 6.3695 7.73598C5.96378 8.09503 5.67756 8.53314 5.51086 9.05031C5.4462 9.25155 5.39012 9.51248 5.34262 9.83309C4.92495 12.6517 4.49624 15.4951 4.0565 18.3631C4.00869 18.6759 3.99122 18.9414 4.0041 19.1595C4.08591 20.5535 5.07188 21.7056 6.4265 21.948C6.6217 21.983 6.87911 22.0003 7.19873 22C10.8702 21.9947 14.4456 21.9947 17.9249 22C18.2181 22.0003 18.4654 21.9775 18.6668 21.9316C20.0131 21.625 20.9972 20.4368 21 19.0278C21.0003 18.8375 20.9703 18.5448 20.9099 18.1498C20.4662 15.2377 20.0339 12.378 19.6132 9.5706C19.4119 8.22674 18.3965 7.21006 17.0704 7.02398C16.87 6.99585 16.6539 6.99304 16.4517 6.99866C16.4284 6.99929 16.417 6.98773 16.4177 6.96398ZM14.4416 6.99445L10.5565 7.00101C10.5504 7.00101 10.5446 6.99854 10.5403 6.99414C10.536 6.98975 10.5336 6.98379 10.5336 6.97757L10.5317 6.03167C10.5308 5.49345 10.7367 4.97693 11.104 4.5957C11.4713 4.21447 11.97 3.99975 12.4903 3.99877H12.4968C12.7545 3.99829 13.0098 4.05032 13.2481 4.15189C13.4864 4.25346 13.703 4.40259 13.8855 4.59076C14.0681 4.77893 14.213 5.00245 14.3121 5.24856C14.4111 5.49466 14.4623 5.75854 14.4627 6.02511L14.4641 6.97101C14.4641 6.97714 14.4617 6.98304 14.4575 6.98742C14.4533 6.9918 14.4476 6.99432 14.4416 6.99445ZM8.79329 11.6199C9.26536 12.1983 10.1861 12.1018 10.4701 11.3644C10.5198 11.2354 10.5432 11.0551 10.5405 10.8235C10.534 10.2423 10.5336 9.63701 10.5391 9.00765C10.5391 9.00517 10.54 9.00278 10.5418 9.00102C10.5435 8.99927 10.5458 8.99828 10.5483 8.99828H14.4503C14.4523 8.99828 14.4541 8.99907 14.4555 9.00048C14.4569 9.00188 14.4577 9.00379 14.4577 9.00578C14.4659 9.56763 14.4656 10.1111 14.4567 10.636C14.4512 10.9745 14.4716 11.2074 14.5179 11.3349C14.7367 11.9368 15.4473 12.1979 15.986 11.828C16.2726 11.6315 16.4167 11.348 16.4186 10.9777C16.4219 10.3596 16.4221 9.7106 16.419 9.03062C16.4187 9.01343 16.4272 9.00406 16.4443 9.0025C16.9214 8.96266 17.3066 9.08171 17.5613 9.51482C17.618 9.61107 17.6705 9.82231 17.7189 10.1485C18.1345 12.9453 18.5649 15.7999 19.0101 18.7123C19.0616 19.0479 19.0414 19.3217 18.8483 19.5884C18.6498 19.8624 18.3717 19.9993 18.0141 19.999C14.3408 19.9977 10.6734 19.9979 7.01211 19.9994C6.90117 19.9994 6.79469 19.9874 6.69264 19.9634C6.21735 19.8504 5.89605 19.3451 5.97006 18.8553C6.4196 15.8732 6.86992 12.8872 7.321 9.89731C7.38213 9.48998 7.61702 9.16609 8.00681 9.04515C8.15911 8.99797 8.34221 8.98422 8.5561 9.0039C8.56989 9.00515 8.57679 9.01281 8.57679 9.02687C8.5774 9.5656 8.57786 10.1043 8.57817 10.6431C8.57817 11.0748 8.55978 11.3335 8.79329 11.6199Z"/></svg>